<?xml version="1.0" encoding="utf-8"?>
<!-- Generator: Adobe Illustrator 18.0.0, SVG Export Plug-In . SVG Version: 6.00 Build 0)  -->
<!DOCTYPE svg PUBLIC "-//W3C//DTD SVG 1.1//EN" "http://www.w3.org/Graphics/SVG/1.1/DTD/svg11.dtd">
<svg version="1.1" id="Warstwa_1" xmlns="http://www.w3.org/2000/svg" xmlns:xlink="http://www.w3.org/1999/xlink" x="0px" y="0px"
	 viewBox="0 0 168 49" enable-background="new 0 0 168 49" xml:space="preserve">
<g>
	<g>
		<g>
			<path fill="#FFFFFF" d="M155.7,31.5l-0.3,0.3c-0.2,0.2-0.2,0.2,0,0.4c-0.2,0.3-0.7,0.6-0.7,1.1c0.1,0,0.2-0.2,0.4-0.3v0.3
				c-0.2,0.2-0.7,0.9-0.7,1.1c0,0.1-0.2,0.1-0.4,0.1c0,0.5,0.1,0.4,0.2,0.7c-0.1,0-0.3,0.1-0.4,0.2c0,0.2-0.1,0.4-0.1,0.7
				c0,0,0,0,0,0.1v0.1c0,0-0.2-0.2-0.4-0.2l-0.1,0.1c0.1,0.2,0.2,0.4,0.4,0.7c-0.2-0.1-0.2-0.2-0.3-0.2c-0.1,0.2,0,0.5,0.1,0.6
				c-0.3,0.2-0.5,0.2-0.8,0.3c0.2,0.1,0.4,0.4,0.5,0.7c0,0,0,0,0,0.1c0,0,0,0.1,0,0.1H153c0,0-0.1,0-0.1-0.1
				c-0.2,0.3-0.4,0.7-0.7,0.9c0.1,0.1,0.1,0,0.1,0.2c0,0.3-1.1,1.4-1.1,2c-0.2,0.1-0.4,0.2-0.4,0.5c-0.1,0.1-0.2,0-0.3,0
				c-0.1,0.1,0,0.3,0,0.5c-0.3,0.2-0.5,0.6-0.7,0.6c-0.3,0,0-0.1-0.2-0.1c-0.2,0-0.2,0.2-0.2,0.3H149l-0.2-0.2
				c-0.1,0.2,0.2,0.2-0.2,0.5c0,0,0,0,0,0h0.1c0,0.1-0.2,0.2,0,0.4c-0.2,0-0.3,0.2-0.5,0.2c-0.3,0-0.2-0.2-0.4-0.2
				c-0.1,0-0.9,0.3-1.2,0.5c0,0.1-0.1,0.2,0.1,0.2c0.2,0,0.2,0.1,0.4,0.1c0.2,0,0.3,0,0.5,0c-0.1,0-0.2-0.1-0.4,0
				c-0.2,0-0.5,0.1-0.7,0.1c-0.1,0.1,0,0.2-0.1,0.4c-0.2-0.1-0.5-0.8-0.1-1c-0.1-0.2-0.7-0.3-1-0.7c0,0-0.2,0-0.4,0
				c-0.1-0.3-0.4-0.9-0.9-0.7c0.3-0.1,0.4-0.5,0.4-0.7c0-0.4-0.3-0.3-0.6-0.3v-0.4c0,0,0,0,0,0c0,0,0.1,0,0.1,0
				c0.1-0.1,0.2,0,0.2-0.2c0-0.3-0.1-0.5-0.2-0.9c-0.1,0.1-0.2,0.2-0.2,0.2c0-0.7,0-1.6-0.3-2.5c0,0.1-0.1,0,0.2,0.2
				c0,0,0-0.4-0.1-0.5l0.5,0c0.1-0.3,0.1-0.5,0-0.8c0,0-0.4,0.3-0.1,0.5c-0.1,0-0.3,0-0.5,0l0-0.8c0.1,0,0.2,0,0.3-0.1
				c0-0.1-0.2-0.3-0.2-0.5c0.1,0,0.2,0,0.3,0.1c0.1-0.1,0.2-0.4,0.2-0.6c0-0.2-0.1-0.5-0.4-0.4c0.1-0.1,0-0.3,0.2-0.5
				c-0.1-0.3,0-0.8,0.1-1c0-0.1-0.2-0.1-0.3-0.1c0.2-0.3,0.2-1,0.2-1.3v-0.5c0,0,0.2,0,0.4-0.2c-0.1-0.1-0.2-0.2-0.3-0.2l-0.1-1.5
				c0.2-0.2,0.2-0.7,0.5-1.2c-0.1-0.1-0.1,0-0.2-0.2c0-0.2,0.4-0.5,0.5-0.6c0.1-0.1,0.1-0.4,0.3-0.7v-0.2c-0.2-0.2-0.5,0-0.2-0.3
				c-0.1-0.1,0,0-0.2,0c-0.2,0-0.5,0.4-0.7,0.4c-0.4,0-0.3-0.5-0.6-0.7h-0.4c0,0.1-0.1,0.2,0,0.5c0,0.3,0.1,0.4,0.3,0.4
				c0.3,0,0-0.2,0.2-0.2c0.3,0,0.5,0.3,0.6,0.5v0l-0.1-0.1l-0.5,0.4c0.1,0.1,0.2,0.1,0.4,0.3c-0.1,0-0.2,0.1-0.5,0.2
				c0,0.1,0.1,0.1,0.2,0.1c-0.2,0.4-0.6,0.5-0.2,0.9c-0.3,0-0.5-0.3-0.7-0.3s-0.3,0.2-0.5,0.5c0,0.1,0.2,0.2,0.4,0.2
				c0,0.1-0.1,0.4-0.2,0.4c-0.1-0.1,0-0.2-0.2-0.1c-0.2,0-0.2,0.3-0.4,0.3c-0.2,0-0.1-0.1-0.2,0c-0.1,0.1,0,0.2-0.1,0.3
				c0.1,0.1,0.1,0.1,0.4,0.1c0.2,0,0.1-0.2,0.4-0.2c0.2,0,0.5,0.2,0.6,0.2l0,0.7l-0.2-0.2c-0.5,0.3-0.2,1.5-0.7,1.5l-0.2-0.1
				c0.1,0.4-0.1,0.7,0.3,1.1c-0.3,0.1-0.5,0.4-0.8,0.4v0.2c0.1,0.1,0.3,0.1,0.5,0.3c-0.4,0.1-0.7-0.2-0.9-0.5c-0.1,0-0.1,0.1,0,0.2
				c-0.2,0.1-0.4,0.1-0.7,0.3c0.1,0,0.2,0.1,0.3,0.3c-0.2,0.2-0.5,0.1-0.6,0.5c-0.1-0.2-0.3-0.2-0.5-0.2c0-0.1,0.1-0.2,0-0.4
				c-0.2,0-0.2,0.2-0.3,0.4c0,0,0.1,0,0.2,0c-0.3,0.3-0.1,0.6-0.4,0.8c0.3,0.2,0.7,0.5,0.9,0.5c0.2,0,0.2-0.1,0.5-0.1
				c0-0.1-0.1-0.3,0-0.4c0.2,0.5-0.4,1-0.7,1.5c0-0.3,0.2-0.5,0.3-0.8c-0.2,0-0.4,0-0.6,0.1c0-0.1,0-0.1-0.1-0.3
				c-0.1,0.1,0,0.1,0,0.2c-0.1,0.1-0.3,0.2-0.4,0.2c0-0.1,0-0.2-0.1-0.4c-0.1,0-0.1,0.2-0.2,0.3c-0.5,0.2-0.6,0.9-0.6,1.1
				c0.1,0.1,0.1,0,0.2,0.2c0.1-0.1,0.1-0.5,0.1-0.7c0.4,0.1,0.5,0,0.7,0.1c0.1-0.1,0-0.1,0-0.3h0.1c0,0,0.1,0,0.2,0.1
				c-0.2,0.3-0.1,0.7-0.5,0.9l0-0.4v0h0c0,0-0.1,0-0.1,0c0,0.1-0.3,0.3,0,0.5c-0.1,0-0.1,0.1-0.3,0.1c-0.2,0,0.1-0.2-0.1-0.2
				c-0.2,0-0.2,0.2-0.4,0.3V39c0.3-0.1,0.4,0,0.2,0l0,0.4l0.1,0.1c0.2-0.3,0.3-0.5,0.6-0.9c0,0,0,0.1-0.1,0.2
				c0.1,0.1,0.2,0.2,0.2,0.2l-0.2,0.2c0,0.1,0,0.3,0.1,0.3c-0.3,0-0.8,0.3-1,0.3c-0.2,0-0.1-0.2-0.3-0.1c0,0.1,0.1,0.3,0.3,0.3
				c0.2,0,0.5-0.1,0.8,0c0,0.1,0.1,0.1,0.1,0.3c-0.2,0-0.3,0-0.2,0c0,0,0-0.1,0-0.2c-0.2,0.1-0.4,0-0.4,0.2c0,0.2,0.2,0.3,0.4,0.5
				c-0.3,0.4-0.7,0.7-1,1c0-0.1,0-0.2,0.1-0.3l-0.2-0.1c-0.1,0-0.1,0.1-0.2,0.3c0.3,0.4,0.3,0.3,0.6,0.5c-0.1,0.1-0.2,0-0.4,0
				c0,0,0,0.2,0,0.4c-0.1,0.1-0.2,0.2-0.3,0.3c-0.2,0,0-0.2-0.3-0.2c-0.2,0-0.2,0.1-0.3,0.3c0.1,0.2,0.2,0.5,0.4,0.4
				c0.2,0,0.1,0,0.2-0.1c0,0.5-0.3,0.4-0.4,0.7c-0.1,0-0.1-0.2-0.3-0.2c-0.2,0,0,0.2-0.2,0.2c-0.2,0-0.2,0.1-0.3,0.1
				c0-0.1,0.2-0.5,0.2-0.8c-0.1,0-0.3,0.2-0.4,0.3c0-0.3-0.2-0.6-0.7-0.6c0.1-0.2,0-0.5,0-0.7c-0.1-0.1-0.2-0.1-0.2-0.1
				c-0.1,0.1-0.1,0.2,0,0.5c0,0,0,0-0.1,0l-0.1,0.1c-0.3-0.4-0.7-1-0.7-1.4c0-0.1,0.1,0.1,0.2-0.8c0-0.2,0-0.4-0.1-0.5
				c0.5-0.1,0-1.5,0.5-1.9h0c0,0-0.1,0-0.1,0l0-0.6c0-0.2,0.4-1.4,0.6-2c-0.1-0.2-0.1-0.8,0-0.8c0-0.1,0-0.2-0.2-0.4
				c0.2-0.2,0.2-0.4,0.4-0.5c-0.3-1,0-0.4,0-0.9c0-0.2-0.1-0.5-0.1-1c0.1,0,0.7-3,0.6-3.2c0.1-0.1,0.4-0.6,0.2-0.8
				c0,0,0-0.2,0.1-0.4v0c0,0,0-0.1,0-0.1l0.4-0.2c0-0.3-0.2-0.2,0-0.5c-0.1,0-0.2,0-0.2,0.1c0.2-0.9,0.2-2.1,0.6-2.4
				c0,0,0-0.1,0-0.1c0-0.1,0-0.1,0-0.2c0.1-0.1,0.1-0.7,0.4-0.7c0.2,0,0,0.2,0.2,0.2c0.1-0.2,0-0.5-0.1-0.8c0,0,0,0,0,0
				c0,0,0,0.1,0,0.1l-0.2-0.2c0.1,0,0.2-0.1,0.5-0.2c-0.1-0.1-0.2-0.2-0.3-0.2c0.1-0.3,0.2-0.7,0.2-1c0.2,0,0.2,0.1,0.3,0
				c0,0.2-0.2,0.5,0,0.8l0.2,0c0-0.1,0-0.4,0-0.6c0-0.3-0.1-0.5-0.5-0.5c0.5-0.3,1-0.6,1.5-1c-0.1-0.1-0.2,0-0.4-0.2h-0.2
				c0,0.2,0,0.5-0.2,0.6v-0.1c0,0,0-0.1,0-0.2c-0.1-0.2-0.2-0.3-0.4-0.6c0.1,0,0.7,0,0.4-0.3v-0.1c0,0,0-0.1-0.1-0.1
				c0.4,0.2,0.7,0.2,1,0.7c0.1,0,0.1-0.1,0.3-0.3c-0.1-0.1,0-0.1-0.2-0.1c-0.2,0-0.3-0.5-0.5-0.5c-0.2,0,0,0.1-0.2,0.1
				c-0.2,0-0.2-0.3-0.3-0.3c-0.3,0-0.2,0.1-0.3,0.2c0.1-0.2,0.2-0.5,0.4-0.6c-0.1-0.1-0.2-0.1-0.3-0.3c0-0.1,0.1-0.2,0.2-0.2
				l0.2-0.2l-0.2,0.4c0.1,0.2,0.2,0.2,0.4,0.4c0.1,0,0.5-0.9,0.2-1c0.1-0.2,0.4-0.7,0.5-0.7c0.3,0,0.5,0.1,0.8,0.1
				c-0.1-0.2-0.1-0.3-0.2-0.5c0-0.1,0.2,0,0.5,0c0.2,0,0.4-0.2,0.8-0.5l-0.1-0.3c-0.3,0.1-0.1,0.1,0,0.2c-0.7,0.3-1.2,0.3-1.9,0.5
				v-0.1c0,0,0-0.1,0-0.1l-0.1-0.1c0,0-0.1,0.1-0.1,0.2c0-0.1-0.1-0.3-0.1-0.4c0.1,0,0.2,0,0.3-0.1c-0.1-0.1-0.2,0-0.5,0
				c0.3-0.6,0.8-0.4,1.2-0.7c0.2-0.1,0.2-0.5,0.3-0.6c0.3,0,0.5,0,0.7-0.2c0-0.1-0.1-0.1-0.2-0.1c0-0.1,0-0.3,0.1-0.5
				c-0.1-0.1-0.4-0.1-0.7,0c0-0.2-0.1-0.5-0.1-0.6h0.4c0,0,0.1-0.6-0.2-0.5c0,0,0.1-0.4,0.1-0.6l0.4,0c0-0.2,0-0.5-0.1-0.5l-0.7,0.6
				c0-0.1-0.1-0.2,0-0.3l-0.2-0.1c-0.1,0.1-0.2,0.2-0.2,0.4c-0.1,0-0.1-0.1-0.2-0.3c-0.1,0.4-0.1,0.5,0,0.6
				c-0.1-0.1-0.4-0.1-0.4-0.4c0-0.5,0.3-0.9,0.6-0.9c0.2,0,0,0.1,0.2,0c0.2,0,0.3-0.3,0.6-0.5l-0.1-0.3c-0.2,0.1-0.4,0.4-0.5,0.4
				c-0.2,0,0.1-0.1-0.2-0.1c-0.2,0,0,0,0,0.1c0.5-0.8,0.5-0.2,0.5-1V9.4c0.1,0.1,0.4,0.3,0.6,0.6l0.2-0.3c0-0.1-0.1-0.3-0.2-0.1
				c0-0.6,0.2-0.7,0.4-1.2c0-0.1-0.2-0.1-0.2-0.1V8c0.1-0.2,0.2-0.4,0.2-0.6c0.5,0,0.2,0.3,0.4,0.5l0.4-0.3l-0.1-0.3
				c-0.1,0.1-0.1,0-0.2,0.1c0.2-0.1,0.5-0.2,0.7-0.2c0.2,0,0.1,0.1,0.2,0.3c0.2-0.1,0.3-0.3,0.4-0.5c-0.3-0.2-0.2-0.9-0.4-0.9
				c-0.1,0-0.2,0-0.2,0c0,0,0,0-0.1,0c0.1-0.1,0.1-0.2,0.1-0.4h-0.2c0,0.1,0,0.3,0.1,0.5c-0.1,0.1,0,0.3-0.2,0.4
				c-0.1,0-0.2-0.1-0.3-0.3l-0.2,0.2c0-0.1-0.1-0.1-0.2-0.3c-0.1,0-0.2,0.1-0.3,0.3l0-0.3c0.2-0.1,0.3-0.3,0.5-0.4
				c0.2,0,0.2,0.1,0.3,0.1c0,0,0-0.1,0-0.1c0-0.1,0-0.2,0-0.3c0,0,0.1,0,0.2,0.2c0.5-0.2,0-0.8,0.7-1.2c0,0,0,0,0,0.1V5
				c-0.1,0.3,0,0.3,0,0.6c0.1,0,0.2,0.1,0.5,0c0-0.5,0-0.3-0.2-0.5c0.2-0.3,0.4-0.5,0.5-0.5l0.2,0c0-0.1,0-0.3-0.1-0.5h0.3
				c0,0.1,0,0.2,0.1,0.2c0,0,0,0-0.1,0c0,0,0,0,0,0c-0.1,0.2,0,0.4,0.1,0.5c-0.1-0.1-0.2-0.1-0.2,0c0,0.1,0.1,0.2,0.3,0.2
				c0.2,0,0-0.1,0.2-0.1c0.2,0,0.5,0.1,0.7,0.3c-0.1,0.1-0.3,0.2-0.2,0.4c-0.2-0.2-0.4-0.2-0.7-0.2c0.1,0.2,0.2,0.4,0.4,0.7
				c0.1-0.1,0.2-0.3,0.3-0.4C144,5.8,143.8,6,144,6c0.2,0,0.1,0,0.1-0.2c0.2,0.1,0.4,0.2,0.6,0.3c-0.1,0-0.3,0-0.5,0.2v0.3
				c0.2,0.2,0.4,0.5,0.6,0.5c0.2,0,0-0.1,0.2-0.1c0.6,0,0.7,1,0.4,1.4c0.1,0.1,0.2,0.1,0.3,0c0,0.2-0.1,0.5-0.1,0.7
				c0,0.2,0.4,0.6,0.4,0.9c0,0.6-0.7,0.8-0.1,1.3l0.1,1.6l-0.4,0.4l0.2,0.1c0,0.1-0.1,0.3-0.2,0.2c-0.1,0,0,0.2,0,0.4l-0.1,0.1
				c-0.2-0.1-0.5,0-0.6,0.1c0.1,0.1,0.1,0.2,0.1,0.4c0.1,0.1,0.2,0,0.4,0c0,0.1,0,0.3,0.1,0.3c-0.3,0.7-0.7,1.4-0.8,2.2
				c-0.1,0-0.1-0.1-0.2-0.3c-0.2,0.1-0.5,0-0.6,0.2c0,0.1-0.1,0.2,0.1,0.2c0.2,0,0.4,0,0.4,0l-0.2,0.3v0c0,0,0-0.1-0.1-0.1H144v0.1
				c0.1,0.1,0.3,0.2,0.5,0.2l0,0.2c-0.2,0.1-0.2,0.4-0.4,0.5c-0.2,0-0.4-0.2-0.7-0.2c0.1,0.2,0.2,0.2,0.4,0.4c0,0.1,0,0.2-0.1,0.4v0
				c0,0,0,0-0.2,0c-0.2,0-0.5,0.3-0.8,0.5c0,0.1,0,0.2-0.1,0.4c0.1,0.1,0.2,0,0.5,0c0.2,0,0.2,0,0.2-0.2c0,0.1-0.2,0.5-0.3,0.6
				c0.1,0.1,0.2,0,0.2,0.3c0,0.2-0.3,0.5-0.3,0.6c-0.1,0-0.2-0.1-0.4,0c-0.1,0-0.2,0-0.2,0.2v0c0,0,0,0.1,0,0.1
				c0.1-0.1,0.2-0.2,0.3-0.2v0.4h-0.3c-0.1,0.2-0.1,0.5-0.2,0.7c-0.1-0.1-0.3-0.2-0.5-0.4c-0.3,0.2-0.2,0.5-0.5,0.6
				c0,0.1,0.2,0.2,0.3,0.2l0,0.3c0,0.2-0.2,0.3-0.3,0.5c-0.1,0.2-0.1,0.7-0.3,1c-0.1,0.2-0.7,0.7-0.9,0.8h-0.4c-0.2,0,0-0.1-0.2-0.3
				c-0.1,0.1-0.2,0.1-0.3,0.1c-0.1,0.1-0.1,0-0.1,0.2c0,0.2,0,0.4,0.2,0.4c0.2,0,0.4,0.1,0.6,0.1c-0.2,0.2-0.4,0.3-0.5,0.6
				c0,0.1-0.2,0.1-0.3,0.1c-0.1,0.1,0,0.1,0.1,0.1c-0.3,0.4-0.7,0.8-0.9,1.3c0,0.1,0,0.2,0.2,0.2c0.2,0,0.2-0.1,0.3,0
				c0,0.1-0.2,0.2-0.4,0.4c0,0.1,0.2,0.2,0.3,0.2v0.5c-0.1,0-0.2,0-0.5-0.2l-0.2,0.2l0.1,0.5c0.1-0.1,0.1-0.2,0.2-0.4
				c0.2,0.1,0.2,0.3,0.2,0.4c-0.2,0-0.4,0.1-0.5,0.3c0,0,0,0,0,0c0,0,0.1,0,0.1,0c-0.1,0.2-0.1,0.7,0,1.1c-0.2,0.1-0.5-0.1-0.8,0
				c0,0.1,0.1,0.2,0.3,0.3c0.1,0.2,0.1,0.4,0.1,0.6v0h0c0,0,0,0,0.1,0c0.3,0,0.4-0.5,0.7-0.9c0,0.1,0,0.2,0.1,0.3
				c0.2-0.2,0.2-0.5,0.2-0.5c0.1,0,0.3,0,0.4,0c0,0.1-0.1,0.2,0,0.4c0.1,0,0.1-0.2,0.2-0.3c0.2,0,0.3,0,0.5-0.1
				c-0.2-0.2-0.6-0.3-0.9-0.4c0.1-0.1,0.2-0.3,0.2-0.4c0.1,0.1,0.2,0,0.3,0.2c0.1-0.4,0.1-0.4,0.1-0.7c0.1-0.1,0.2-0.1,0.5-0.1
				c0.1-0.1,0,0,0-0.3v-0.4c0.6,0,0.6-1,0.9-1.3c0,0,0.2-0.1,0.4-0.3c0-0.2,0.2-0.4,0-0.5c0.1,0,0.3-0.1,0.5-0.2l0.3,0.4l0.3-0.1
				c-0.1-0.2-0.3-0.3-0.3-0.5c0-0.5,0.2-0.1,0.5-0.6c0,0.1,0,0.2,0.1,0.3c0.5-0.5,0.1-0.7,0.4-1.1c0.1,0,0.2,0.1,0.2,0.4
				c0.2-0.3,0.5-0.6,0.7-1.1c0,0,0,0.1-0.1,0.2c0.1,0.1,0.2,0.1,0.2,0.1c0.1-0.1,0-0.5,0-0.6c0.1,0,0.2,0.3,0.4,0.2
				c0.2,0,0.4,0,0.5-0.2c-0.5-0.6-0.8-0.2-1.2-0.4c0-0.2,0.4-0.5,0.4-0.8c0.4,0,0.2-0.1,0.7-0.2c0,0,0,0.1,0,0.2v0.1c0,0,0,0,0,0
				l0.1,0.1c0.1,0,0.2,0.1,0.2-0.1c0-0.2-0.2-0.5-0.3-0.5c-0.3,0-0.1,0-0.2,0.1c0.1-0.2,0.3-0.5,0.3-0.7c0.1-0.1,0.3-0.1,0.5-0.1
				c0.1-0.7,0.4-1.1,0.9-1.1c0.2,0,0.5,0.3,0.7,0.3l-0.3,0.3l0,0.5c0.5-0.2,0.2-0.5,0.4-0.6c0.2,0,0.6,0.1,0.9,0.2
				c-0.1,0-0.5,0-0.6,0.3c0.1,0.1,0.2,0.2,0.3,0.2c0.2,0,0.2,0,0.3-0.2c0.3,0.4-0.4,1.2,0,1.8c-0.1,0-0.3,0-0.5,0
				c-0.2,0-0.3-0.2-0.6-0.3v0.3c0.1,0.2,0.3,0.3,0.5,0.3c0.2,0,0.2-0.1,0.3-0.1c-0.1,0.1-0.2,0.1-0.3,0.2c0.1,0.1,0.2,0.4,0.4,0.8
				c-0.1,0-0.2,0-0.5-0.1c-0.2,0.2-0.5,0.6-0.2,0.8c0,0,0,0-0.1,0c0,0,0,0,0,0c-0.1,0.3,0.2,0.7-0.2,1c0,0.1,0.2,0.5,0.1,0.7
				l-0.5-0.4h0c0,0,0,0-0.1,0c0.2,0.3,0.5,0.5,0.5,0.8c0,0.2-0.1,0.4-0.3,0.6c0.1,0.1,0.2,0,0.3,0c-0.1,0.1,0,0.4-0.2,0.6
				c0.1,0.1,0.1,0.2,0.3,0.2c0.2,0,0.1,0,0.1-0.1c-0.1,0.3,0,0.6,0.1,0.9c-0.5,0.3-0.3,0.6-0.6,0.9c-0.1-0.1-0.2-0.3-0.4-0.3h0
				c0,0,0,0-0.1,0.1c0.1,0.2,0.1,0.5,0.3,0.5c0.2,0,0.3,0.1,0.5,0.1c0,0.2-0.2,0.5-0.5,0.7c0.1,0.1,0.2-0.1,0.3-0.1
				c0,0.1-0.1,0.4-0.3,0.4c-0.2,0,0-0.2-0.2-0.2c0,0.4-0.2,1-0.2,1.2c0,0.5,0.3,1,0.7,1c-0.2,0-0.3,0.2-0.5,0.4
				c0.1,0.2,0.3,0.2,0.5,0.5c-0.2,0-0.3,0.2-0.5-0.1c0,0.2-0.1,0.4,0.2,0.5c-0.1,0.1-0.2,0.5-0.4,0.5c-0.2,0-0.3,0.3-0.3,0.2
				c0-0.1,0-0.2-0.2-0.2c-0.3,0-0.2,0.1-0.5,0.3c0.3,0,0.5,0.4,0.8,0.5c0.1,0,0.5,0.1,0.7,0.3c-0.1,0-0.3,0-0.4,0.2
				c0.1,0.2,0.3,0.4,0.5,0.4c-0.1,0.1-0.3,0-0.3,0.2c0.2,0.2,0.3,0.5,0.5,0.8c-0.1,0-0.2,0-0.3,0.1c0.1,0.2,0.2,0.1,0.3,0.3
				c-0.2,0.1-0.4,0.2-0.7,0.4c0.1,0.2,0,0.5,0.2,0.6h0.2c0.1-0.1,0-0.2,0.2-0.4c0.2,0.3,0.2,0.5,0.3,0.9c0,0.1,0,0.3-0.1,0.4
				c0,0.1,0.2,0.2,0.4,0.2c0,0.2,0,0.4-0.2,0.5c0.1,0.2,0.2,0.3,0.4,0.3c0.1,0,0.3,0,0.4,0s0.5-0.5,0.7-0.8c0-0.1-0.1-0.1,0-0.3
				c0.3-0.4,0.5-0.7,0.9-0.9c0-0.1-0.1-0.3-0.3-0.3c0.2-0.1,0.3-0.5,0.3-0.6c0.3-0.4,0.7-0.5,1-0.7c0-0.2-0.1-0.4-0.2-0.7
				c0.5-0.8,1.2-1.6,1.5-1.8c0-0.3-0.2-1,0.2-1c0-0.1-0.1-0.2-0.2-0.2c0.1,0,0.2,0,0.2-0.1c0,0.1,0,0.2,0.1,0.4
				c0.2-0.1,0.3-0.1,0.5-0.3c0,0-0.1,0-0.2,0h-0.1c-0.1-0.2,0.1-0.4,0-0.5c0,0,0,0,0,0c0,0-0.1,0-0.1,0c0.1-0.2,0.3-0.2,0.1-0.5
				c0.3,0,0.7,0,0.9-0.7c0,0-0.2-0.1-0.3-0.1c1.3,0,0.7-1.5,1.5-1.9c0-0.1-0.1-0.1-0.2-0.1l0.1-0.6c0.1,0.1,0.2,0,0.3,0.2
				c0.1-0.1,0.4-0.4,0.1-0.7c0.1,0,0.2,0,0.3-0.1h0c0,0-0.1,0-0.1,0v-0.4c0.1,0.1,0.4,0.2,0.5,0.4c0.1,0.5-0.5,0.9-0.1,0.9
				c0.2,0,0.4,0,0.5,0C155.5,31.1,155.7,31.3,155.7,31.5z M135.7,30.9l-0.1-0.1l-0.2,0.4l0.1,0.1L135.7,30.9z M135.7,34.6
				c0,0,0-0.1-0.1-0.2c0,0,0,0,0-0.1l-0.2,0.3H135.7z M135.5,42.7l-0.1,0.4c0.1,0,0.2,0,0.3,0.1c0.1-0.1,0.2-0.4,0.2-0.4
				C135.8,42.9,135.7,42.8,135.5,42.7z M136.7,35.5c-0.2-0.1-0.3-0.2-0.4-0.2c0,0.1,0,0.4-0.1,0.7c0,0-0.1-0.1-0.1-0.1H136
				c0.1,0.1,0.3,0.2,0.4,0.2c0-0.1,0.1-0.3,0.1-0.6H136.7z M136.4,26.5l-0.4,0.1l0.1,0.4l0.2-0.2L136.4,26.5z M136.3,25.8l-0.1,0
				l-0.1,0.4l0.1,0L136.3,25.8z M136.4,28.9l0-0.3l-0.1,0l0,0.3L136.4,28.9z M136.5,33.3l-0.1,0l-0.1,0.2l0.1,0.1L136.5,33.3z
				 M136.7,32.6c-0.2,0-0.2,0.1-0.3,0.1c0.2,0.1,0.3,0.5,0.5,0.4c0.2,0,0-0.1,0.2-0.1c0.2,0,0.5,0.4,0.6,0.5
				c0.1-0.2,0.1-0.4,0.1-0.6C137.3,32.7,136.9,32.6,136.7,32.6z M137.2,33.6l-0.1-0.1c-0.2,0-0.3,0-0.4,0l-0.1,0L137.2,33.6z
				 M136.9,42.2c0,0,0,0-0.1,0.1c0,0,0,0-0.1,0c0.2,0,0.4,0.3,0.4,0.3C137.1,42.6,137,42.4,136.9,42.2z M137.2,34.3v-0.2l-0.3,0v0.1
				H137.2z M137.2,29.6l-0.3,0c0.3,0,0.5,0.4,0.7,0.5l0.1-0.2c0,0,0-0.1,0-0.1C137.6,29.7,137.4,29.6,137.2,29.6z M137,40.7
				C137,40.7,137,40.7,137,40.7c0,0.1,0,0.2,0,0.2v0.1c0.2-0.1,0.1-0.4,0.1-0.4C137.2,40.6,137.1,40.6,137,40.7z M137.3,22.7
				l-0.1-0.1L137,23l0.1,0.1L137.3,22.7z M137.4,23.4L137.4,23.4h-0.2l-0.1,0.1c0.1,0.1,0.3,0.1,0.3,0.1
				C137.4,23.5,137.4,23.4,137.4,23.4z M137.5,28.9c0-0.1,0-0.2,0-0.3c-0.1,0.1-0.3,0.3-0.4,0.3c0.1,0,0.1,0.2,0.1,0.3
				c0.3,0.2,0.6,0.1,0.9,0.1C137.9,29.2,137.8,28.9,137.5,28.9z M137.3,40.5c0.3,0.1,0.5,0.4,0.7,0.3
				C137.9,40.7,137.6,40.4,137.3,40.5z M137.9,21.3l-0.5-0.2v0.1l0.5,0.2L137.9,21.3z M137.8,23.6l-0.1-0.2h-0.1l0.1,0.3L137.8,23.6
				z M137.9,26.6l-0.1,0l-0.1,0.3l0.1,0L137.9,26.6z M138,31c-0.1,0.1-0.2,0.2-0.4,0.2c0,0.1,0.1,0.2,0.2,0.4l0.1-0.1
				c0,0,0.1,0,0.1,0L138,31z M138.4,20.4c0,0-0.1,0.5-0.1,0.7c0.1-0.1,0.1-0.3,0.3-0.5L138.4,20.4z M138.5,18.8c0.2,0,0.3,0,0.4-0.1
				C138.7,18.6,138.6,18.7,138.5,18.8z M138.7,27l-0.1,0l-0.1,0.2l0.1,0L138.7,27z M139,13c-0.1,0-0.3-0.1-0.4-0.2
				c0.1,0,0.2-0.2,0.4-0.2L139,13z M138.8,13.8c0,0-0.1-0.1-0.2-0.2c0.1,0,0.5,0,0.5,0C139,13.6,139,13.8,138.8,13.8z M141.1,33.1
				c0-0.2,0-0.1,0.1-0.3c0.1,0,0,0-0.1-0.2c-0.2,0.3-0.2,0.7-0.6,0.9l-0.2-0.3l-0.3,0c-0.1,0.2-0.4,0.8-0.7,0.8
				c-0.2,0-0.1-0.1-0.2-0.3c-0.1,0-0.2,0-0.2,0h-0.1c0,0.2-0.2,0.5-0.2,0.7c0,0.3,0.1,0.1,0.2,0.3c0.1-0.2,0.3-0.6,0.5-0.6
				c0.2,0,0.3,0,0.5,0c-0.1-0.1-0.2-0.1-0.1-0.3c0.2,0,0.2,0.3,0.4,0.3c0.6,0,0.7-0.7,0.8-0.9c0.1,0.1,0.4,0.3,0.4,0.3
				C141.2,33.4,141.1,33.3,141.1,33.1z M139.1,17.5c-0.1,0.1-0.4,0.4-0.4,0.6c0.2,0.1,0.4-0.1,0.4-0.1V17.5z M139,14.3l-0.1,0.3
				l-0.1,0L139,14.3z M139.3,14.3c-0.2,0-0.1,0.1-0.2,0.1c0.1-0.1,0.2-0.3,0.3-0.3c0.1,0.1,0.1,0.2,0.1,0.4
				C139.3,14.5,139.5,14.3,139.3,14.3z M139.5,11.2V11l-0.2,0l0,0.1H139.5z M139.6,35l-0.1-0.1l-0.2,0.1v0.1L139.6,35z M139.8,19
				c-0.2-0.1-0.3-0.2-0.4-0.2c0,0.1,0.1,0.2,0.1,0.4l0.4,0c0.1-0.1,0.1-0.4,0.1-0.4L139.8,19z M139.7,32.1l-0.2-0.4l-0.1,0.1
				l0.2,0.4L139.7,32.1z M139.8,15.9l-0.2-0.1l0,0.1l0.2,0.1L139.8,15.9z M139.7,35.9C139.7,35.9,139.7,35.9,139.7,35.9
				c-0.1,0-0.2-0.1-0.2-0.1c0.1-0.1,0.2,0,0.4,0c0.1-0.1,0.1-0.4,0.1-0.4C140,35.6,139.9,35.9,139.7,35.9z M140.1,32.5
				c-0.2,0-0.2-0.1-0.4-0.1l0,0.6c0.1,0.1,0.4,0.1,0.6,0.1c0-0.3,0-0.6,0-1C140.2,32.3,140.3,32.4,140.1,32.5z M140.2,11.3v-0.1
				h-0.3v0.2L140.2,11.3z M140.9,10C140.9,10,140.8,10,140.9,10c-0.1-0.1-0.1-0.1,0-0.2c-0.3,0.1-0.3,0.4-0.5,0.4
				c-0.1,0-0.2,0-0.3,0c0.1,0.1,0,0.4-0.1,0.5c0.1,0,0.2-0.2,0.5-0.2c0.3,0,0.6,0,1.1,0.1c0-0.3,0.2-0.7,0.2-0.7
				C141.4,10,141.2,10,140.9,10z M140.2,10.8c0,0.1-0.1,0.1-0.2,0.1c0.1,0,0.4,0.2,0.4,0.2C140.3,11,140.2,11,140.2,10.8z
				 M140.4,22.1c0-0.1,0.1-0.2,0.1-0.3c-0.1,0-0.3,0.2-0.3,0.4l0.2,0.2c0.1,0,0.1-0.1,0.2-0.2c0.1,0,0.1-0.1,0.1-0.1
				C140.6,22.1,140.5,22.2,140.4,22.1z M141.3,12.6c-0.1-0.1-0.2-0.2-0.4-0.1c-0.2,0-0.2-0.3-0.7-0.1c0.2,0,0.2,0,0.3,0.3
				L141.3,12.6z M140.3,35.3C140.3,35.2,140.3,35.2,140.3,35.3l-0.1-0.2l0.3-0.3c0.1,0.1,0.2,0.2,0.2,0.2
				C140.6,35.1,140.4,35.1,140.3,35.3z M141.4,14.1c-0.2-0.1-0.5,0.1-0.6,0c0.3-0.4,0-0.4,0.5-0.6c-0.2,0-0.3-0.2-0.4-0.2
				c-0.2,0.2,0,0.4-0.2,0.5c-0.1,0-0.2,0-0.3-0.2c0,0,0,0.1-0.1,0.2c0,0,0,0,0,0.1c0.2,0.2,0.4,0.1,0.5,0.3L141.4,14.1z M140.7,17.8
				v-0.1h-0.2v0.1H140.7z M140.8,7.2h-0.1L140.5,7l0.1,0L140.8,7.2z M141.2,8.8V8.5c-0.2-0.1-0.4-0.2-0.5-0.2
				c-0.1,0.2-0.2,0.3-0.2,0.5c0.2,0.1,0.3,0.1,0.5,0.3L141.2,8.8z M140.6,22.9c0.1,0.2,0.2,0.4,0.3,0.4c0.1-0.2,0-0.6,0-0.6
				C140.9,22.8,140.7,22.7,140.6,22.9z M140.7,16.6c-0.1,0,0,0.3,0.1,0.5C140.7,16.9,140.8,16.7,140.7,16.6z M140.9,32.5l-0.1,0
				l-0.1,0.3l0.1,0L140.9,32.5z M140.7,30.1C140.7,30.1,140.7,30.1,140.7,30.1c0.1,0,0.1-0.1,0.1-0.1C140.8,30,140.7,30,140.7,30.1z
				 M140.8,14.9l0.2-0.1l0-0.1L140.8,14.9z M141.1,10.3l-0.2,0.1v-0.1l0.2-0.1L141.1,10.3z M141.3,16.6c-0.1-0.1-0.3-0.2-0.4-0.2
				v0.4L141.3,16.6z M144.1,10.7c-0.2,0.2-0.3,0.2-0.5,0.2c-0.3,0-0.2-0.5-0.2-0.7c-0.2-0.2-0.2-0.3-0.2-0.5
				c0.3-0.3,0.5-0.3,0.7-0.4V9c-0.2,0-0.3,0-0.4-0.1c0.2-0.2,0.3-0.3,0.4-0.5c-0.1-0.2-0.2-0.4-0.3-0.6L143,8.2
				c0.5,0.2,0,0.3-0.1,0.6l-0.2-0.2c-0.1,0.2-0.2,0.4-0.3,0.5c0.2,0.1,0.4,0.2,0.4,0.2c-0.3,0.2-0.3,0.5-0.5,0.6l0.1,0.2l-0.3,0.9
				h-0.2c-0.2,0-0.4,0-0.7,0.2c0.1,0,0.2,0.1,0.1,0.2c-0.1,0-0.1-0.1-0.1-0.1v0c0,0.2-0.2,0.5-0.2,0.7c0.2-0.2,0.8-0.5,0.7-0.8h0.3
				l0.1,0.8c-0.1,0.1-0.2,0.2-0.3,0.2c0,0,0.1,0,0.1,0v0c-0.2,0.4-0.2,0.5-0.3,0.8c0.3,0.5-0.1,1.4-0.2,2.2l-0.4,0.7
				c0.3,0.1,0.6,0.3,0.8,0.3c0.2,0,0.4-0.3,0.5-0.5c-0.1-0.1-0.2-0.2-0.2-0.3c-0.2,0-0.3,0.2-0.4,0c0.1-0.2,0.3-0.3,0.3-0.4h-0.3
				l-0.1,0.2c0-0.3,0.2-0.5,0.3-0.7c0.1,0.1-0.1,0.2,0.1,0.2c0.2,0,0-0.3,0.2-0.3c0.1,0,0.2,0,0.2,0h0.1c-0.1-0.2-0.2-0.4-0.5-0.5
				c0.1-0.2,0.2-0.3,0.2-0.4c0.2,0,0,0.1,0.2,0.1c0.2,0,0.2-0.1,0.3-0.2v-0.3c-0.6-0.3,0.3-1.4,0.4-1.7c0.1,0.1,0.1,0.1,0.1,0.1v0
				l0.3-0.5c0,0-0.2-0.2-0.1-0.3c0.1,0,0.2,0,0.2,0.1c0-0.1,0.1-0.1,0.2-0.2c0.2,0.2,0.5,0.3,0.5,0.3
				C144.1,11,144.1,10.9,144.1,10.7z M141.8,30.9c-0.5,0-0.5,0.5-0.8,0.7l0,0.4c0.3-0.3,0.7-0.6,0.9-0.9L141.8,30.9z M141.4,28.6
				l0-0.1l-0.4,0.1v0.1L141.4,28.6z M141.6,32.1c-0.2,0.1-0.3,0.2-0.5,0.2c0.1,0.1,0.3,0.2,0.5,0.2
				C141.7,32.2,141.7,32.1,141.6,32.1z M142.2,20.7l-0.3,0c-0.2,0.2-0.4,0.6-0.7,0.5c0,0.1,0.1,0.2,0.1,0.4l0.4,0
				c0.1-0.2,0.2-0.5,0.5-0.4L142.2,20.7z M141.9,8V7.8h-0.4V8L141.9,8z M141.7,5.2c0,0-0.1,0-0.1,0.1l-0.1,0.1
				c0.1,0.1,0.3,0.1,0.3,0.1C141.7,5.3,141.8,5.2,141.7,5.2z M141.9,9.2L141.9,9.2l-0.3,0.1l0.1,0.1L141.9,9.2z M142.2,10.4
				c0,0-0.2,0-0.2-0.1l0.1-0.2c0.3-0.1-0.4,0.1-0.5,0.5c0.1,0,0.2,0,0.3,0.1L142.2,10.4z M142,28.6c-0.2,0-0.3,0.2-0.3,0.3
				c0.3,0,0.6,0.1,0.9,0C142.4,28.7,142.2,28.6,142,28.6z M142.1,27.4l-0.1,0l-0.1,0.2l0.1,0L142.1,27.4z M142.3,8l-0.1-0.1L142.1,8
				v0.1L142.3,8z M142.3,18l0-0.3h-0.1V18H142.3z M142.7,20.4l-0.5-0.2v0.1l0.5,0.2L142.7,20.4z M142.4,27.7
				c-0.1-0.1-0.2-0.1-0.2,0.2v0.3c0.1,0,0.2,0,0.3,0.2c0-0.1,0.1-0.2,0.1-0.4C142.6,27.6,142.5,27.6,142.4,27.7z M143,6.4l-0.4,0
				c0,0.1,0.1,0.2,0.2,0.2L143,6.4z M142.6,15.9c0,0.1,0.2,0.2,0.3,0L142.6,15.9z M142.9,17.5c0,0.1,0,0.2-0.2,0.2l0,0.5
				c0.2,0,0.4,0,0.5,0c-0.1-0.1-0.2-0.1-0.3-0.3c0.1-0.1,0-0.1,0.2-0.3c0.1,0,0.3,0.1,0.3,0.1C143.3,17.7,143,17.5,142.9,17.5z
				 M143,13.3h-0.1l-0.1,0.2l0.1,0L143,13.3z M143.4,15.6l-0.2-0.1l0,0.1l0.2,0.1L143.4,15.6z M143.3,17c0,0,0,0.1,0,0.1
				c0,0,0,0,0,0.1c0.1,0.1,0.3,0.2,0.3,0.3l0.1-0.2c0,0,0,0,0,0C143.6,17.2,143.4,17.2,143.3,17z M144,14.5
				c-0.3,0.2-0.6,0.3-0.7,0.5c0.1,0,0.2,0.2,0.3,0.3c0.1-0.3,0.5-0.6,0.5-0.6C144,14.8,144,14.7,144,14.5z M143.3,26
				c0.1,0.1,0.1,0.3,0.2,0.4c0.1,0,0.2-0.3,0.2-0.3C143.6,25.9,143.4,25.9,143.3,26z M143.3,13l0,0.5c0.2-0.1,0.2-0.6,0.2-0.6
				L143.3,13z M143.6,12.4v0.4c0.2,0,0.4-0.1,0.4-0.1C143.9,12.5,143.7,12.4,143.6,12.4z M143.9,10.1
				C143.9,10.1,143.9,10.1,143.9,10.1c-0.2,0.1-0.2,0.3-0.2,0.4c0.1,0,0.3-0.4,0.3-0.4C144,10.1,143.9,10.1,143.9,10.1z M144.2,9.8
				V9.6l-0.3,0v0.1H144.2z M144.2,15.8c0,0.1-0.2,0.1-0.3,0.1c0,0.1,0.1,0.2,0.1,0.3c0-0.1,0.4,0,0.4,0
				C144.4,16,144.2,15.9,144.2,15.8z M144.1,39.2H144l-0.1,0.2l0.1,0L144.1,39.2z M144.1,26.2c0,0.1,0,0.2,0,0.2
				c0,0.1,0,0.2,0.1,0.2c0.1,0,0.2,0,0.3-0.1C144.5,26.4,144.3,26.3,144.1,26.2z M144.6,27.9h-0.2v-0.1l0.2,0V27.9z M144.6,33.5
				L144.6,33.5c-0.1,0-0.2,0-0.3,0.2l0.2,0.2C144.6,33.7,144.4,33.6,144.6,33.5c0,0.1,0,0.1,0.2,0.1L144.6,33.5z M144.8,8.2
				l-0.3-0.3L144.4,8l0.3,0.3L144.8,8.2z M144.4,14.6c0.1,0.1,0.2,0.1,0.3,0L144.4,14.6z M144.8,25h-0.1l-0.1,0.2l0.1,0L144.8,25z
				 M145,42.1v-0.2l-0.4,0V42L145,42.1z M145.2,6.7l-0.5,0l0-0.2l0.5,0.1L145.2,6.7z M145.3,23.6c-0.2-0.2-0.3-0.3-0.4-0.2
				c0.1,0.1,0,0.1-0.2,0.2c0.2,0,0.3,0.3,0.5,0.3c0.2,0,0.2-0.1,0.4-0.1c0-0.3,0.1-0.4,0.1-0.4C145.6,23.3,145.5,23.4,145.3,23.6z
				 M145.2,24.6l-0.1-0.1l-0.4,0.5l0.1,0.1L145.2,24.6z M145.1,30.4l-0.4-0.1l0,0.1l0.3,0.1L145.1,30.4z M145.3,44.5
				c-0.1,0-0.5-0.2-0.6-0.4c0.2,0.1,0.7,0.1,0.7,0.1C145.4,44.2,145.3,44.4,145.3,44.5z M145.1,11.7v-0.1h-0.2l0,0.2L145.1,11.7z
				 M144.9,33.5l0.2,0.3c0.2-0.1,0.2-0.5,0.2-0.5C145.3,33.5,145.1,33.5,144.9,33.5z M146,33.5v-0.2l-0.4,0.1v0.2L146,33.5z
				 M145.8,39l0-0.4h-0.1V39H145.8z M146,30.7c-0.1,0.1-0.2,0.3-0.2,0.5c0.1,0,0.4-0.2,0.4-0.2L146,30.7z M146.2,37.8l-0.3-0.1v0.1
				l0.3,0.1L146.2,37.8z M146.3,23.2V23l-0.3,0v0.1H146.3z M146.2,27.7l-0.1-0.1l-0.2,0.1v0.1L146.2,27.7z M146.4,26.4
				C146.4,26.4,146.4,26.4,146.4,26.4l-0.4-0.1c0,0.2,0.1,0.3,0.1,0.5c0.1,0,0.3-0.2,0.3-0.2C146.5,26.5,146.4,26.5,146.4,26.4z
				 M146.1,30.4c0,0.1,0.1,0.3,0.2,0.4C146.4,30.7,146.4,30.4,146.1,30.4z M146.3,31.3c0,0.1-0.2,0.4,0,0.6c0.1,0,0.3-0.2,0.3-0.2
				C146.4,31.6,146.4,31.3,146.3,31.3z M146.4,29.1l0-0.5h-0.1v0.5H146.4z M146.7,40.8l-0.4-0.3l0,0.1l0.4,0.3L146.7,40.8z
				 M146.5,42.7l-0.2-0.2l-0.1,0.1L146.5,42.7z M146.5,26c0,0-0.1,0-0.1,0l-0.1-0.1c-0.1,0-0.1,0.3,0,0.4L146.5,26z M146.8,21.5
				l0-0.2l-0.5,0v0.1H146.8z M146.4,24c0,0.2,0.3,0.1,0.3,0.1L146.4,24z M147.1,24.5C147.1,24.5,147.1,24.5,147.1,24.5l-0.2-0.1
				h-0.5l0,0.5c0.1,0,0.3,0.3,0.5,0.5c0.2-0.2,0.2-0.5,0.4-0.9C147.2,24.5,147.2,24.5,147.1,24.5z M146.7,36.9l-0.3-0.1l0-0.1
				L146.7,36.9z M146.6,33.3c0.1-0.2,0-0.5,0-0.7c0.1,0.2,0.2,0.5,0.3,0.8C146.8,33.2,146.7,33.3,146.6,33.3z M146.7,42
				c0.1,0.1,0.4,0.4,0.6,0.3c0.2,0,0.3-0.1,0.3-0.1C147.4,42,147,42.1,146.7,42z M147,33.8l-0.2,0.2l-0.1-0.1l0.2-0.2L147,33.8z
				 M147.1,32.4l-0.2,0.1v-0.1l0.2-0.1L147.1,32.4z M147,20.9c0.1-0.2,0.2-0.3,0.2-0.3c0,0,0,0,0,0.1c0,0.1,0.1,0.1,0.1,0.1
				L147,20.9z M147.7,44.2l-0.1-0.1l-0.2,0.1v0.1L147.7,44.2z M147.8,26.3c0-0.1-0.1-0.3-0.2-0.2v-0.5l0.2,0.1
				c0.1,0,0.1,0.3,0.1,0.5L147.8,26.3z M148.1,22.4l-0.2-0.1l0,0.1l0.2,0.1L148.1,22.4z M154.3,32.6h-0.1l-0.1,0.4h0.1L154.3,32.6z
				 M155.2,31.1c0,0,0-0.1,0-0.1v-0.1c-0.4,0.7-0.9,0.7-0.9,1.1c0,0.1,0,0.3,0.1,0.4c0.2-0.2,0.3-0.5,0.5-0.8c0.1,0,0.1,0.1,0.2,0.1
				c-0.1-0.1-0.1-0.2,0-0.2s0.1,0,0.2,0.1C155.4,31.3,155.3,31.2,155.2,31.1z"/>
		</g>
	</g>
	<g>
		<path fill="#FFFFFF" d="M6.3,24l3.9-5H6.6v-1.4h5.7v1.4l-3.9,5h4v1.4H6.3V24z"/>
		<path fill="#FFFFFF" d="M15.7,17.6h1.6l2.7,7.8h-1.7l-0.5-1.7h-2.7l-0.6,1.7H13L15.7,17.6z M17.5,22.4l-0.9-2.9h0l-0.9,2.9H17.5z"
			/>
		<path fill="#FFFFFF" d="M20.9,17.6H24c1.9,0,3.3,1.3,3.3,3.9c0,2.3-1.1,3.9-3.3,3.9h-3.1V17.6z M23.9,23.9c0.9,0,1.8-0.6,1.8-2.3
			c0-1.6-0.5-2.6-2.1-2.6h-1.1v4.9H23.9z"/>
		<path fill="#FFFFFF" d="M27.8,24l3.9-5h-3.6v-1.4h5.7v1.4l-3.9,5h4v1.4h-6.1V24z"/>
		<path fill="#FFFFFF" d="M42.1,25.4h-1.6l-1.2-5.3h0L38,25.4h-1.6l-1.9-7.8h1.6l1.1,5.3h0l1.3-5.3H40l1.2,5.4h0l1.2-5.4H44
			L42.1,25.4z"/>
		<path fill="#FFFFFF" d="M48,17.4c2.2,0,3.6,1.8,3.6,4.1c0,2.2-1.3,4-3.6,4c-2.2,0-3.6-1.8-3.6-4C44.4,19.2,45.7,17.4,48,17.4z
			 M48,24.1c1.4,0,2-1.3,2-2.6c0-1.4-0.5-2.7-2-2.7s-2,1.3-2,2.7C46,22.8,46.5,24.1,48,24.1z"/>
		<path fill="#FFFFFF" d="M52.7,17.6h1.6l3,5.2h0v-5.2h1.5v7.8h-1.6l-3-5.2h0v5.2h-1.5V17.6z"/>
		<path fill="#FFFFFF" d="M60.4,17.6H62v7.8h-1.6V17.6z"/>
		<path fill="#FFFFFF" d="M63.5,17.6h2.2l1.7,5.4h0l1.6-5.4h2.2v7.8h-1.5v-5.5h0L68,25.4h-1.2L65,19.9h0v5.5h-1.5V17.6z"/>
		<path fill="#FFFFFF" d="M74.8,22.4l-2.7-4.8h1.8l1.7,3.1l1.7-3.1h1.8l-2.7,4.8v3h-1.6V22.4z"/>
	</g>
	<g>
		<path fill="#FFFFFF" d="M13.7,38.3h-1.6L10.9,33h0l-1.2,5.3H8l-1.9-7.8h1.6l1.1,5.3h0l1.3-5.3h1.5l1.2,5.4h0l1.2-5.4h1.6
			L13.7,38.3z"/>
		<path fill="#FFFFFF" d="M22.5,30.3c1.6,0,2.9,1,3.1,2.8h-1.5c-0.1-0.8-0.8-1.4-1.6-1.4c-1.4,0-2,1.3-2,2.7c0,1.3,0.5,2.6,2,2.6
			c1,0,1.5-0.7,1.6-1.7h1.5c-0.2,2-1.4,3.2-3.2,3.2c-2.2,0-3.6-1.8-3.6-4C18.9,32.1,20.2,30.3,22.5,30.3z"/>
		<path fill="#FFFFFF" d="M26.8,30.5h1.6v7.8h-1.6V30.5z"/>
		<path fill="#FFFFFF" d="M36.1,39.9c-0.3,0.5-0.7,0.7-1.3,0.7c-0.7,0-1.1-0.4-1.1-0.9c0-0.5,0.4-1,1.1-1.5h-0.2l-0.5-1.7h-2.7
			l-0.6,1.7h-1.6l2.8-7.8h1.6l2.7,7.8h-0.8c-0.6,0.7-0.7,1-0.7,1.3c0,0.3,0.2,0.4,0.4,0.4c0.2,0,0.4-0.1,0.6-0.3L36.1,39.9z
			 M31.8,35.3h1.9l-0.9-2.9h0L31.8,35.3z"/>
		<path fill="#FFFFFF" d="M40,30.3c1.5,0,2.9,1,3.1,2.8h-1.5c-0.2-0.9-0.8-1.3-1.5-1.3c-1.4,0-2,1.3-2,2.7c0,1.3,0.5,2.6,2,2.6
			c1,0,1.6-0.6,1.7-1.7h-1.6v-1.3h3.1v4.2h-1L42,37.4c-0.6,0.8-1.3,1.1-2,1.1c-2.2,0-3.6-1.8-3.6-4C36.4,32.1,37.8,30.3,40,30.3z"/>
		<path fill="#FFFFFF" d="M50.7,35.3c0,2.1-1.2,3.1-3.1,3.1c-2,0-3.1-1-3.1-3.1v-4.8h1.6v4.8c0,0.9,0.2,1.7,1.5,1.7
			c1.1,0,1.5-0.5,1.5-1.7v-4.8h1.6V35.3z"/>
	</g>
	<g>
		<g>
			<path fill="#FFFFFF" d="M158.2,44.1H153c-0.1,0-0.2-0.1-0.2-0.2s0.1-0.2,0.2-0.2h4.7V12.1h-8.8c-0.1,0-0.2-0.1-0.2-0.2
				s0.1-0.2,0.2-0.2h9.3V44.1z"/>
		</g>
		<g>
			<path fill="#FFFFFF" d="M136.7,12.1h-7.3c-0.1,0-0.2-0.1-0.2-0.2s0.1-0.2,0.2-0.2h7.3c0.1,0,0.2,0.1,0.2,0.2
				S136.8,12.1,136.7,12.1z"/>
		</g>
		<g>
			<path fill="#FFFFFF" d="M113.3,12.1h-9.9c-0.1,0-0.2-0.1-0.2-0.2s0.1-0.2,0.2-0.2h9.9c0.1,0,0.2,0.1,0.2,0.2
				S113.4,12.1,113.3,12.1z"/>
		</g>
		<g>
			<path fill="#FFFFFF" d="M91.6,44.1H-0.2V11.6h85.9c0.1,0,0.2,0.1,0.2,0.2s-0.1,0.2-0.2,0.2H0.2v31.6h91.4c0.1,0,0.2,0.1,0.2,0.2
				S91.7,44.1,91.6,44.1z"/>
		</g>
		<g>
			<path fill="#FFFFFF" d="M132.1,44.1h-2.9c-0.1,0-0.2-0.1-0.2-0.2s0.1-0.2,0.2-0.2h2.9c0.1,0,0.2,0.1,0.2,0.2
				S132.3,44.1,132.1,44.1z"/>
		</g>
		<g>
			<path fill="#FFFFFF" d="M110.9,44.1h-9.4c-0.1,0-0.2-0.1-0.2-0.2s0.1-0.2,0.2-0.2h9.4c0.1,0,0.2,0.1,0.2,0.2S111,44.1,110.9,44.1
				z"/>
		</g>
	</g>
	<g>
		<g>
			<path fill="#FFFFFF" d="M105,31.9c-0.2-0.2-0.6,0-1,0c-0.3,0.2-0.5,0.5-0.3,0.8c-0.2-0.2-0.7,0-1,0c-0.3,0,0-0.1-0.2-0.2
				c-0.2,0.1-0.3,0.4-0.4,0.9c-0.2,0-0.5,0-0.9,0.2c-0.1,0.1,0,0.3,0.1,0.7c-0.2,0.2-0.4,0.4-0.4,0.6c0,0.4,0.1,0.8-0.1,1.2
				c-0.2,0.2-0.3,0.7-0.7,1c0.2,0.2,0.2,0,0.4,0.2c-0.1,0.3-0.2,0.5-0.5,0.7c0.2,0.2,0.2,0.1,0.3,0.2c-0.4,0.9-0.2,2.2-0.9,2.2
				c0,0.2,0.3,0.4,0.3,0.9c0,0.2-0.4,0.6-0.5,1c-0.1,0.2-0.1,0.2,0.1,0.2c-0.3,0.3-0.3,1-0.6,1.3h-0.7C98,44,98.2,44,98,44.2
				c0.1,0.1,0.3,0.1,0.6,0.2c-0.4,0.3-0.7,0.6-0.3,1.3c0,0.1,0,0.1-0.1,0.1l-0.2,0.2c-0.2,0-0.3-0.1-0.6-0.4
				c-0.2,0.4-0.5,0.8-0.5,1.2c0,0.3-0.1,0.1,0.1,0.2c0.2-0.2,0.3-0.6,0.9-0.6c0.3,0,0.3,0.4,0.3,0.6c-0.2-0.2-0.3-0.2-0.5-0.2
				c-0.2,0.1-0.2,0.4-0.4,0.6c-0.2-0.2-0.3-0.2-0.5,0c0,0.2,0.3,0.3,0.5,0.5c-0.2,0.1-0.4,0.4-0.5,0.7c-0.1-0.2-0.1-0.3-0.2-0.5
				c-0.2,0.2-0.4,0.7-0.8,0.7c-0.3,0-0.5,0.1-0.6,0.1c0.3-0.3,0.5-0.6,0.5-0.9c0-0.3,0.1-0.5-0.2-0.5c-0.3,0-0.2,0.1-0.3,0.1
				c0.2-0.2,0.1-0.7,0.6-0.5l0.2-0.2c-0.4-0.1-0.9-0.4-1.4-1l0.4,0.1c0.2-0.1,0.2-0.2,0.1-0.4c-0.2,0.2-0.3,0.1-0.5,0.1
				c0.1-0.3,0.1-0.6-0.1-0.9c0.1,0,0.2,0.1,0.4,0.2l0.2-0.2c-0.3-0.6-0.6-1-0.6-1.5c0-0.2,0.3-0.4,0.2-0.7c0.2,0.2,0.2,0.1,0.4,0.2
				c0.2-0.2,0.3-0.4,0.7-0.7L95,42v-0.7c0.2,0,0.2,0.1,0.3,0.1c0.3-0.5,0-1.1,0.7-1.4c-0.3-0.7-0.7-0.4-0.3-0.6v-2.7
				c-0.2-0.2-0.1-0.2-0.3-0.4c-0.3-0.1-0.5,0-0.7,0c-0.4,0-0.5,0.4-0.3,0.7H94c-0.2-0.3-0.3-0.5-0.5-0.5c-0.4,0-0.2,0.4-0.6,0.4
				l-0.2-0.1c0,0.2,0,0-0.2,0.2c0.2,0.2,0.3,0.2,0.3,0.4c-0.2,0-0.3-0.1-0.4-0.2l-0.4,0.4v-0.1c0-0.1-0.1-0.1-0.2-0.1h-0.4
				c-0.2,0.2,0.1,0.1,0.1,0.3c-0.4,0.2-0.8,0.6-1.4,0.8c-0.2,0.2-1,0.2-1.3,0.2H88c-0.3,0-0.2-0.4-0.5-0.4c-0.3,0,0.2,0.2-0.1,0.2
				c-0.3,0-0.1-0.1-0.2-0.1c-0.2,0.2,0,0.1-0.2,0.3c0.1,0.2,0.2,0.4,0.3,0.6c-0.4,0-0.8-0.1-1.2,0.1c-0.2-0.2,0.1-0.4-0.1-0.6
				c-0.1,0.1-0.2,0.2-0.2,0.4c-0.4-0.4-1-0.9-1.3-0.9c-0.3,0-0.5-0.1-0.7,0.1c0.2-0.1,0.3-0.1,0.6-0.4c-0.9-0.3-2.6-1.3-2.6-2.7
				c0-1,0.5-2,0.7-2.5c0.2-0.4,0.2-1.2,0.5-1.8c-0.5-0.5,0.6-2.7,1-3.4c-0.1-0.2-0.1-1,0.3-1c0.3,0,0,0.1,0.2,0.3l0.2-0.2v-0.4
				c-0.1-0.1-0.2-0.1-0.5-0.1c0.2-0.2,0.3-0.9,0.2-1.3c0.1-0.2,0.3-0.3,0.3-0.5c-0.2-0.9,0.3-1.8,0.6-2.8c0.2-0.3,0.3-0.7,0.1-1.2
				c0.8-0.2,0.3-1,0.4-1.3c0.2-0.7,0.3-1.7,0.5-2.4c0.1-0.3,0.6-1,0.7-1.6c0.1-0.4,0.3-1.2,0.2-1.7c0.6-1.1,0.1-0.7,0.8-1.3
				c-0.2-0.2-0.3-0.6-0.4-1.2H88l0.2,0.2c0.2-0.2,0.5-0.4-0.2-0.8c0.2-0.8,0.2-1.9,0-2.1c0.7-0.6,0.8-2.1,0.6-2.8
				c-0.1-0.4,0.2-1,0.2-1.5c0.7,0,1.6,1.1,2.2,1.3c0.1,0.2,0.2,0.4,0.2,0.6c0,0.2-0.1,0.2,0.3,0.2c0.3,0,0.1-0.2,0.3-0.2
				c0.2,0,0.4,0.1,0.6,0.3c-0.2-0.2-0.4-0.2-0.6-0.1C91.9,6,92.1,6,92.3,6c-0.2,0.2-0.1,0.2-0.2,0.4c0.2,0.2,0.3-0.1,0.5-0.1
				c0,0.2,0.3,0.7,0.3,1c0,0.2-0.3,1-0.3,1.7c0,0.4,0.1,0.9,0.1,1.3c-0.2,0.4-0.1,0.7-0.3,0.9c-0.3,1.2-0.3,2.4-0.8,3.1
				c-0.1,0.3,0.1,0.7,0.1,0.7c-0.4,0.7-0.5,2-0.7,2.9c0,0.1-0.2,0.3-0.3,0.6c-0.2,1-0.3,2.1-0.5,3.2c-0.2,0.9-1,2.1-0.6,3.1
				c-0.1,0.2-0.2,0.7-0.7,1c0,0.1,0.1,0.2,0.2,0.2c-0.2,0.2-0.1,0.3-0.3,0.5c0.1,1.7-0.6,2.8-0.7,4.2L87.8,31
				c-0.1,0.7-0.2,1.5-0.3,2.2c0,0.2-0.5,0.4-0.5,0.6c0.3,0.2,0.5,0.2,0.7,0.2c0.3,0,3.3-1,3.5-1c0.4,0,0,0.1,0.4,0.1
				c0.3,0,0.4-0.2,0.6-0.3c0.4-0.2,0.9-0.2,1.3-0.1c0.2-0.1,0.1-0.4,0.4-0.4c0.4,0,0,0.2,0.4,0.2c0.3,0,1.3-0.9,1.5-0.9
				c0.4,0,0.2,0.1,0.3,0.1c0-0.2,0.2-0.4,0.5-0.7v-0.9c0-0.1,0.2-0.2,0.5-0.5c-0.2-0.2-0.3-0.2-0.5-0.2v-0.8c0-0.3,0.3-1.5,0.6-1.5
				c0.3,0,0.2,0.1,0.3,0.1l0.2-0.2c-0.1-0.2-0.3-0.4-0.6-0.5v-3.7c0.2-0.2,0.3-0.2,0.5-0.4h-0.1c-0.1,0-0.1-0.1-0.2-0.1l0.2-0.3
				c-0.2-0.2-0.2-0.4-0.3-0.4c0.2-0.2,0.6-0.4,1-0.6C98.1,20.9,98,21,97.8,21c-0.2-0.2-0.1-0.2,0.1-0.4c-0.2-0.2-0.2-0.1-0.4-0.2
				c0.3,0,0.5-0.1,0.6-0.1c-0.2-0.3-0.5-0.3-0.7-0.5c0.2-0.4,0-1.3,0.5-1.5c-0.1-0.2-0.4-0.5,0-0.9c-0.3-0.3-0.4-0.7-0.4-0.9
				c0-0.3,0.2-0.8,0.3-1.1c0.1-0.1,0-0.2-0.2-0.2c0.1-0.4,0.5-1,0.5-1.3c0-0.3-0.5-0.4-0.5-0.7c0.1-0.1,0.2-0.2,0.3-0.4
				c0.2-0.3,0.1-0.6-0.1-0.8c0.2-0.2,0.5-0.3,0.7-0.3c0.3,0,0.5,0.4,0.8,0.4c0.4,0,0.2,0.1,0.3,0.3c0.2-0.2,0.1-0.6,0.1-0.8
				c0.2,0.2,0.4,0.4,0.7,0.7c0.5,0.1,1,0.4,1.4,0.6c0.1,0.2,0.2,0.4,0.1,0.7v0.1c0.4,0,0.1-0.1,0.3-0.1l-0.2,0.3v3.4
				c0.2,0.2,0.2,0.6,0.4,0.8c-0.6,0.4-0.4,0.4,0,0.9v2.4c-0.4,0.2-0.4,0.6-0.6,0.8c0.3,0.4,0.3,0.6,0.2,0.6c-0.1,0.1-0.1,0.1-0.2,0
				c0,0.4,0.3,0.4,0.3,0.6l-0.1-0.1c-0.1,0-0.1-0.1-0.2-0.1c0,0.5,0.1,1.1,0.2,1.5l-0.2,0.2l0.5,0.8c-0.9,0.8-0.4,2.2-1.1,3
				c0.2,0.2,0.4,0.2,0.5,0.2c-0.2,0.2-0.2,0.1-0.3,0.2c0.1,0.1,0.1,0.3,0.1,0.6v0.1c0,0.1,0.1,0.1,0.2,0.1s0.3-0.1,0.3-0.1
				c0,0.1,0.2,0.1,0.5,0.1c0.3,0,0.1-0.1,0.4-0.1c0.4,0,0,0.4,0.4,0.4c0.3,0,0.1,0.1,0.2-0.1c0.2,0.4,0.5,0.9,0.5,1.3
				c0.2-0.2,0.9-0.4,1.3-0.3C105.4,31.3,105.2,31.7,105,31.9z M84.8,37.7l-0.4-0.2l-0.1,0.2l0.4,0.2L84.8,37.7z M86.8,17.6l-0.2-0.1
				L86.4,18l0.2,0.1L86.8,17.6z M88.9,38.3l-0.1-0.4L88.6,38L88.9,38.3z M95.2,36.6l-0.1,0.3l-0.2-0.1l0.1-0.3L95.2,36.6z
				 M96.4,43.9l-0.2-0.1l-0.3,0.6l0.2,0.1L96.4,43.9z M96.4,37.4L96,37.3v0.2l0.4,0.2L96.4,37.4z M98.1,29.9l-0.5-0.2l-0.1,0.2
				l0.5,0.2L98.1,29.9z M98,28.8v-0.2h-0.3v0.2H98z M98,46.6c0-0.1,0-0.1,0.1-0.1c0.1-0.1,0.1-0.2,0.1-0.2c0.2,0.2,0.3,0.5,0.3,0.5
				C98.2,46.7,98.2,46.6,98,46.6z M101.9,13.2c0-0.4-0.2-0.3-0.3-0.3c-0.2,0.2-0.3,0.5-0.2,0.7c0.2,0,0.6,0.1,0.6,0.1V13.2z
				 M102.6,31v-0.2h-0.3V31H102.6z M104.6,30.7h-0.2l-0.2-0.3l0.2-0.1L104.6,30.7z M104.8,30.2c0-0.1,0-0.1,0.1-0.1
				c0.1-0.1,0.1-0.2,0.1-0.2c0.2,0.2,0.6,0.9,0.9,1.2C105.5,30.8,105.2,30.4,104.8,30.2z"/>
		</g>
		<g>
			<path fill="#FFFFFF" d="M130,32.1c0.3,0.4,0.2,1.8-0.7,2.1c0.2,0.3,0.6,0.6,0.8,0.8l-0.7-0.1c-0.2,0.1-0.1-0.1-0.1,0.2
				c0,0.3,0.4,0.8,0.8,1.1c-0.2,0.2-0.3,0.4-0.4,0.6c-0.1,0-0.1,0.1-0.3,0.1c-0.2,0.2,0.1,0.7-0.2,1l0.1,0.2
				c0.1-0.1,0.2-0.1,0.4-0.1c-0.2,0.3-1,1.6-1.1,1.6c-0.3,0-0.2-0.1-0.2,0c0.3,0.2,0.5,0.4,0.7,0.6v1.2h-0.4c0.1,0,0.1,0,0.1-0.1
				v-0.1h-0.3c-0.2,0.2,0.1,0.8-0.2,0.8c-0.2,0,0.1-0.1-0.2-0.1c-0.3,0-0.3,0.1-0.6,0.3v0.1c0,0,0.1,0.1,0.1,0.1
				c-0.2,0.4-0.2,1-0.6,1.8c-0.2-0.2-0.5-0.1-0.9-0.4c-0.5,0.2-0.3,0.6-0.2,0.8c-0.3,0-0.5,0.3-0.9,0.1c-0.1,0.1-0.1,0.1,0.1,0.1
				c0,0.2-0.2,0.6-0.5,0.6c-0.3,0-0.5-0.2-0.7-0.4c-0.2,0.2,0,0.2,0.2,0.2c-0.1,0-0.1,0-0.1,0.1c-0.1,0.1-0.1,0.1-0.2,0.1
				c-0.2,0-0.1-0.1-0.2-0.3c-0.4,0.2-0.3,0.4-0.6,0.9c0.2,0.2,0.2,0.2,0.3,0.2c-0.1,0.1-0.3,0.3-0.6,0.7c-0.2-0.2-0.3-0.5-0.5-0.5
				c-0.2,0-0.4,0.2-0.7,0.2c-0.2,0-0.1-0.1-0.2-0.2c-0.2,0.2-0.3,0.2-0.1,0.6c-0.4,0.2-1,0.1-1.4,0.1c-0.2-0.2-0.2-0.6-0.2-0.9
				c-0.2,0-0.1-0.1-0.3-0.1c-0.4,0-0.4,0.8-0.5,0.8c-0.3,0-1-0.2-1.3-0.2c-0.2,0-0.2,0.2-0.4,0.2c-0.1-0.2,0.1-0.3-0.1-0.5
				c-0.2,0-0.3,0.2-0.3,0.5l-1.1-1c0.1,0,0.2-0.2,0.5-0.2c0.1,0-0.2,0.3,0.5,0.3l-0.3-0.4c-0.1-0.1-0.1-0.1-0.1-0.1
				c0.2-0.1,0.3-0.2,0.2-0.5l-0.2,0.2c-0.2,0.1-0.5,0.2-0.9,0.4c0.2-1-0.8-0.9-1.4-1l0.3-0.4c-0.2-0.2-0.2-0.6-0.5-0.6
				c-0.2,0,0,0.1-0.3,0.1c-0.9,0-0.5-1.9-1.1-1.9c-0.3,0-0.1-0.1-0.3,0.1c-0.2-0.4-0.3-0.7-0.4-1c-0.2-0.5-0.2-0.8-0.6-1
				c-0.1-0.1-0.1-0.2,0-0.4c-0.2-0.1-0.3-0.4-0.6-0.6c0.6-0.5-0.2-1-0.4-1.7c-0.1-0.1-0.1-0.1-0.2-0.1c-0.2-0.7-0.3-1.5-0.6-2
				c0.1-0.1,0.3-0.1,0.5-0.3c-0.1-0.2-0.2-0.1-0.4-0.1c-0.2-0.3-0.2-0.6-0.2-0.8c0-0.5,0.3-0.4,0.5-0.6c-0.3-0.2-0.5-0.5-0.5-0.8
				c0.2-0.1,0.3,0.2,0.6,0c-0.2-0.2-0.3-0.4-0.6-0.4v-0.7c0.1-0.2,0.3-0.4,0.5-0.6c-0.2-0.2-0.3-0.3-0.3-0.3
				c0.2-0.2,0.2-0.3,0.1-0.4c0.2,0,0.5,0,0.7-0.2c0-0.1-0.1-0.2-0.4-0.3v-0.5c0.2-0.8,0.8-0.7,1.2-1.1c0.1,0,0.2,0.1,0.3,0.4
				l0.3-0.3c-0.1-0.1-0.1-0.2-0.1-0.4c-0.4,0.1-1.1-0.4-1.5-0.6c0.6-0.2,0.2-0.3,1-0.6c0.2,0.2,0,0.5,0.2,0.7
				c0.4-0.4,0.5-0.8,0.9-1.2c-0.1-0.2-0.1-0.3-0.3-0.3c-0.3,0-0.4,0.1-0.6,0.2c0.2,0.2,0.2,0.4,0.4,0.4c-0.2,0-0.5,0-0.7-0.2
				l0.4-0.4c-0.2-0.2-0.3-0.3-0.4-0.3v-0.4c0.2-0.3,0.9-0.6,1.1-0.6c0.3,0,0.2,0.2,0.5,0.4c0.2-0.2,0-0.1-0.2-0.3
				c0-0.1,0.3-0.1,0.3-0.3c0-0.3-0.1-0.4-0.3-0.4c-0.3,0-0.3,0.1-0.5,0.1V23c0.1,0.1,0.1,0.1,0.2,0.1c0.1,0.1,0.2,0.1,0.3,0.1
				c0.2-0.4-0.2-0.5,0-0.9h0.1c0.1,0,0.1,0.1,0.2,0.1c0.2,0,0.3-0.2,0.2-0.4h0.1c0.1,0,0.1,0.1,0.2,0.1c0.4-0.8,0.9-0.7,0.6-1.1
				c0.2-0.2,0.5-0.2,0.9-0.2c0.1-0.2-0.1-0.2-0.1-0.4c0.5-0.8,0.2-1.3,0.2-1.3c0.1-0.2,0.5-0.4,0.7-0.6c0.2,0.4,0.1,0.9,0.7,1.1
				c0.2,0.1,0.3,0.3,0.1,0.3l-0.2,0.2c0.4,0.2,0.5,0.2,0.9-0.2c0.2,0,0.1,0.2,0.3,0.4c0-0.4-0.1-0.5-0.3-0.9
				c0.2-0.2,0.4-0.4,0.8-0.6c-0.5-0.2-0.7-0.3-1.2-0.3l0.1-0.1c0.1-0.1,0.1-0.1,0.2-0.1c0.2-0.2,0.1-0.3-0.1-0.5h0.3
				c0.2-0.2-0.1-0.4-0.1-0.6c0.2,0,0.4-0.2,0.6-0.4c0.1,0.2,0.3,0.6,0.5,0.7c0.2,0,0.3-0.1,0.3-0.4l-0.1-0.4
				c-0.2,0.1-0.3,0.2-0.3,0.6c-0.1-0.2-0.2-0.7-0.2-0.9c0.2,0.1,0.3,0.1,0.5-0.1c-0.2-0.2-0.2-0.1-0.4-0.4c0.2,0,0.2-0.2,0.3,0
				c0.1-0.1,0.2-0.2,0.2-0.3l-0.2-0.2c-0.1,0-0.1,0-0.1,0.1v0.2c-0.1,0-0.1,0-0.1-0.1c-0.1,0-0.1-0.1-0.2-0.1c0-0.2,0.1-0.4,0.4-0.6
				c-0.9-1.2-1.1-2.4-2.5-3.6c0-0.2-0.4-0.7-0.6-0.9c0.5-1-0.5-1.3-0.8-1.8c0-0.2,0.1-0.1,0.2-0.2c-0.2-0.3-0.2-0.6-0.3-1
				c-0.1-0.1-0.2-0.2-0.4-0.3c0-0.6-0.5-1.3-0.5-1.8c0-0.2,0.2-0.4,0.5-0.6l-0.1-0.5c-0.1,0-0.1,0.1,0,0.2h-0.5
				c-0.1-0.4,0.6-0.7,0.7-0.7c0.2,0,0.1,0.1,0.3,0.1c0.3,0,0.3-0.2,0.5-0.4c0,0.2,0,0.4,0.3,0.4h0.6c0.3,0,0.1-0.2,0.1-0.4l0.2,0.2
				c0.2-0.2,0.4-0.2,0.1-0.6h0.4c0.1,0.1,0.1,0.2-0.1,0.4v0.1h0.2c0.3,0,0.4-0.4,0.6-0.7c-0.1-0.2-0.1-0.2-0.3-0.2
				c-0.2,0-0.3,0.2-0.6,0.2c0-0.2-0.1-0.6,0.1-1c0,0.2,0.1,0.2,0.1,0.2l0.3-0.2c0,0.1,0.1,0.2,0.2,0.2c0.2,0,0.2,0.1,0,0.3
				c0.3,0,0.7,0.1,1,0.1c0.2-0.2,0-0.5,0-0.9c0.2,0.1,0.5-0.1,0.6,0.4c0.1,0,0.1,0,0.1-0.1c0.1,0,0.2-0.1,0.3-0.1
				c-0.2,0.2-0.7,0.4-0.7,0.6c0,0.3,0.1,0.3,0.3,0.5c0.7-0.2,0.5-0.6,0.9-1c0-0.2-0.2-0.6-0.1-0.9c0,0,0.1,0.2,0.2,0.5
				c0.2-0.2,0.3-0.3,0.3-0.4c0.2,0,0.4,0.5,0.7,0.5c0.3,0,0.5,0.4,0.9,0.6c0.2-0.2,0-0.3-0.2-0.4c0.2-0.2,0.3-0.1,0.6-0.2
				c-0.2-0.2-0.5-0.4-0.7-0.5c0.6-0.1,1.2-0.1,1.7-0.4c0,0.1-0.1,0.2-0.2,0.2c0.2,0.4,0.9,0.7,1.1,0.7c0.3,0,0.2,0.1,0.2-0.1
				l-0.4-0.5c0.2,0,0.1-0.2,0.3-0.2c0.3,0,0.5,0.1,0.6,0.3l0.2-0.2h0.4c-0.2,0.2-0.1,0.6-0.2,0.7c0.1,0.1-0.1,0.2,0.2,0.2
				c0.3,0,0.3-0.1,0.5-0.1l-0.3,0.4c0.2,0.2,0.1,0,0.3,0.2c0.2-0.2,0.4-0.4,0.6-0.4c0.2,0.1,0.2,0.4,0.5,0.4c0.2,0-0.1-0.1,0.2-0.1
				c0.1,0,0.2,0.1,0.2,0.1c0.2,0.2,0.2,0.4,0.2,0.6c0.4,0.2,0.9-0.1,1-0.1c0.5,0,1,0.5,0.6,1.2c0.4,0.3,0.7,0.4,1,0.4l0.1,1.6
				c-0.8,2-0.6,4.3-2.2,6c0,0.2-0.2,0.4-0.2,0.4c-0.2,0.1-0.2,0.4-0.5,0.4c-0.2,0-0.1-0.2-0.2,0c-0.1,0.2,0,0.3,0.3,0.4
				c-0.2,0.3-0.3,0.6-0.3,0.8l-0.1-0.1c-0.1,0-0.1-0.1-0.2-0.1c-0.1,0.1-0.2,0.4-0.2,0.7c-0.2,0-0.2-0.1-0.4,0.1
				c0.1-0.1,0-0.2-0.3-0.2c-0.2,0.2-0.6,0.3-0.1,0.5c-0.2,0.2-0.3,0.2-0.6,0.1c-0.2,0.5,0.1,0.9-0.1,1.3c-0.3,0-0.5,0.4-0.8,0.7
				c-0.1-0.2-0.2-0.2-0.5-0.2c-0.1,0.2,0,0.3,0.2,0.4h-0.1c-0.1,0-0.1,0-0.1-0.1c-0.2,0.2,0,0.4-0.2,0.9c0.2,0.1,0.5,0.2,0.7,0.2
				c0,0.2,0,0.5-0.2,0.7c0,0.2,0,0.4,0.3,0.4c0.3,0,0.1,0,0.1-0.2v0.3c1.3,0,0.9,2.1,2.1,2.6c-0.2,0.2-0.3,0.1-0.3,0.1
				c-0.2,0.1-0.2,0.3-0.2,0.5c0,0.8,0.5,0.8,0.9,1.1c-0.2,0.2-0.2,0.2-0.3,0.3c0,0.1,0,0.1,0.1,0.1c0,0.1,0.1,0.1,0.1,0.1v0.6
				c0.2,0.1,0,0.1,0.2,0.1c0.7,0,0.2-0.4,0.6-0.8c0.1,0.1,0.2,0.1,0.3,0.1v0.1c0,0.1-0.1,0.1-0.1,0.2c0.2,0.2,0.1,0.4,0.5,0.7
				c0,0.2,0,0.6-0.3,0.6c-0.2,0,0.1-0.1-0.2-0.1v0.3c0.2,0.1,0.5,0.4,0.7,0.4c0.2,0,0.2,0.2,0.3,0.2c-0.1,0-0.2,0.1-0.4-0.1
				l-0.3,0.3v0.3c0.1,0.1,0.2,0.1,0.3,0v0.1c0,0.1,0,0.1-0.1,0.2l0.2,0.1c0.2,0.1,0.3-0.2,0.6-0.4v0.6c-0.2,0-0.2,0.1-0.4,0.3
				c0.4,0.9,0.2,1.2,0.9,1.8c0.2,0.4-0.3,0.9,0.4,1c0,0.1-0.1,0.2-0.3,0.4c0.1,0.1,0.2,0.1,0.5,0.1l-0.5,0.4c0.3,0.3,1,0.7,1,0.7
				C130.3,31.8,130.2,31.9,130,32.1z M110.2,32.4l-0.5-0.7v0.7H110.2z M110.2,33.2v-0.4H110v0.4H110.2z M110.8,34.4v-0.2l-0.7-0.1
				v0.2L110.8,34.4z M112.4,24.5l-0.1-0.1l-0.2,0.3l0.2,0.1L112.4,24.5z M113,30.9l-0.2-0.1l-0.1,0.3l0.1,0.1L113,30.9z M125.1,31.3
				c0.4-1.7-0.5-4-0.7-5.6c-0.6-1.2-1.3-3.1-2-3.7c0-0.6-1.2-2-1.7-2.3c-0.6,1-1.4,1.9-2.2,2.8c-0.2-0.2-0.2-0.2-0.3-0.2
				c-0.1,0.2-0.2,0.4-0.4,0.6c-0.1,0.1-0.1,0.1-0.1,0.2v0.1c0.2,1-0.1,0.7-0.1,0.9c0,0.2,0.3,0.6,0.2,1.1h-0.7c0,0.4-0.3,0.6-0.5,1
				c-0.2,0,0.1,0,0.2,0.2c-0.1,0.4-1,1.3-1,1.5c-0.4,0.7,0,1.3-0.6,1.5c-0.1,0.2,0.2,0.2,0,0.4c-0.2-0.2,0.1-0.1-0.2-0.1
				c-0.3,0-0.2,0.1-0.3,0.2c-0.2,0.7-0.1,1.4-0.2,2.1c-0.4,0.3,0,0.5-0.2,0.8c-0.2,0-0.3-0.1-0.5-0.1c0.2,0.2,0.5,0.3,0.5,0.6
				c-0.3,0.2-0.5,0.6-0.9,0.8c0.2,0.1,0.3,0.4,0.5,0.7c-0.3-0.1-0.4-0.2-0.4-0.4c0,0.2-0.2,0.4-0.4,0.4c0.3,0.2,0.7,0.6,0.7,0.8
				c0,0.5-0.4,1.1-0.8,1.4l0.5,0.4l-0.3,0.6c0.1,0.1,0.2,0.2,0.2,0.4v0.2c0.5,0.2,0.3,0.8,0.6,1.2c0.2,0.1,0.5,0.2,0.6,0.4
				c0.2,0.2,0.4,0.6,0.5,0.8c0.2,0,0.4,0.1,0.6,0.4c0.6,0,1,0.2,1.5,0.4c-0.1,0.1-0.1,0.1-0.1,0.1h-0.1c-0.1,0-0.1,0.1,0.1,0.2
				c0.2,0.1,0.1-0.2,0.3-0.2s0.3,0.2,0.5,0.2c-0.2-0.2-0.2-0.3-0.1-0.4c0.2,0.2,0.3,0.4,0.6,0.4s1.1-0.4,1.7-0.6
				c0.1,0.3,0.1,0.5,0.1,0.6c0.2,0,0.3-0.1,0.4-0.1c0.2-0.7,1.3-1,1.7-1c-0.2,0-0.3,0-0.3-0.2h0.6c0-0.3,0.2-0.7,0.6-1
				c0.2-0.2,0.4-0.4,0.7-0.6c0.3,0,0.2,0.1,0.4,0.1c0-0.2,0.2-0.5,0.2-0.6c-0.2,0.1-0.3-0.2-0.2-0.2c0.2-0.2,0.3-0.2,0.4-0.2
				c0.2-1.2,0.8-2.2,1.1-3.1c-0.2-0.7,0.1-1.2-0.1-1.7c0-0.2,0.2-0.6,0.2-0.6C125.4,32.3,125.4,31.4,125.1,31.3z M115.4,2.8
				c-0.2,0-0.3,0.1-0.4,0.2l-0.3-0.3L115.4,2.8z M115.1,29.3v-0.2h-0.3v0.2H115.1z M115.5,18.6c-0.2-0.2,0.1-0.9,0.5-1
				C115.8,18,115.6,18.3,115.5,18.6z M117,17.4l-0.1,0.1c-0.1,0.1-0.1,0.1-0.1,0.3c0,0.3,0.1,0.2,0.3,0.4c0.2-0.2,0.4-0.3,0.4-0.3
				C117.3,17.7,117.2,17.4,117,17.4z M117.3,2.4l-0.1-0.2l-0.3,0.1v0.2L117.3,2.4z M117.4,19.5H117l-0.1,0.4
				c0.2-0.2,0.6-0.1,0.6-0.1L117.4,19.5z M117,45.3v0.4c0.1,0,0.2,0,0.2-0.1c0.1-0.1,0.1-0.1,0.1-0.1C117.1,45.5,117,45.5,117,45.3z
				 M124.2,4.7c-0.6,0.2-1,0.1-1.4,0.2c-0.1-0.1-0.2-0.2-0.2-0.2c0,0.1-0.1,0.2-0.4,0.2c-0.3,0,0.1,0.2-0.2,0.2
				c-0.3,0,0-0.1-0.3-0.1c-0.2,0-0.5,0.4-0.7,0.4c-0.3,0,0.1-0.1-0.2-0.1c-0.3,0-1.7,1.1-2.7,1.7c-0.4,0.2-0.5,0.9-1,0.8v1.1
				c0.6,0.6,0.9,1.2,1.3,1.8c-0.2,0.2-0.2,0.4-0.1,0.5c0-0.1,0.1-0.2,0.2-0.4c0.1,0.2-0.1,0.5-0.1,0.6H118c0.3,0.7,0.9,1.3,1.7,1.8
				c0-0.2-0.2-0.6,0-0.8c0.2,0.2,0.3,0.4,0.4,0.4l0.2-0.1c0.1,0,0.1,0,0.1-0.1c-0.2,0-0.3,0-0.2-0.2c0.5,0.2,0.7,0.1,1,0.1
				c0.3,0,0.3-0.2,0.3-0.4c0-0.1-0.1-0.2-0.1-0.4c0.2-0.2,0.3-0.4,0.5-0.4c-0.2-0.2-0.5-0.5-0.6-0.4c-0.1,0.2,0.1,0.4-0.5,0.4
				c-0.3,0,0,0.2-0.3,0.2c-0.2,0-0.4-0.1-0.7-0.4l0.2-0.1c0.2,0.1,0.3-0.1,0.3-0.2c-0.2-0.1-0.4-0.2-0.6-0.4
				c0.2-0.1,0.5-0.2,0.7-0.2c0.2,0,0.1,0.1,0.4,0.1c0.3,0,0.5-0.2,0.7,0c-0.4-0.3,0.2-0.4,0.4-0.3l0.3-0.4c-0.2,0.2-0.5-0.1-0.6-0.1
				c0,0.2,0,0.4-0.2,0.4c-0.1-0.4,0.1-0.7,0.4-0.9c0.1,0.1,0.1,0.2,0.1,0.4c0-0.2-0.1-0.2,0.2-0.2c0.2,0,0.6,0.4,0.6,0.7h0.4
				c-0.2-0.2,0.1-0.2,0.2-0.4V8.7c-0.2,0.2-0.6,0.4-0.7,0.2c0-0.2,0.1-0.3,0.2-0.5c-0.1,0-0.1,0-0.2-0.1c-0.1,0-0.1,0-0.1-0.1
				c-0.2,0-0.2,0.3-0.5,0.5l-0.2-0.2c0.2-0.2,0.2-0.4,0.1-0.6c-0.1,0-0.1,0-0.1-0.1V8h0.3c0.2,0,1.5,0.4,2.2,0.6
				c-0.3-0.2-0.6-0.3-1-0.5c0-0.2,0.2-0.2,0-0.4l-0.2,0.2c-0.2-0.1-0.4,0.1-0.6-0.1C122.5,7,122.9,7,123.3,7c0.2,0,0.4-0.1,1.1,0.1
				c-0.2-0.1-0.6-0.4-0.5-0.6c0.2-0.2,0.1-0.2,0.5-0.2c0.1-0.1,0.1-0.1,0.1-0.2V6.1c-0.1,0-0.1,0.1-0.2,0.1h-0.1
				c-0.5-0.6,0.5-1,0.5-1C124.5,5,124.6,4.9,124.2,4.7z M117.6,43.7v-0.2h-0.4v0.2H117.6z M118.3,45.5c0.2-0.2,0.2,0,0.4,0
				c-0.2-0.2-0.5-0.1-0.7-0.3l-0.2,0.6c0.4,0,0.9-0.1,0.9-0.1C118.6,45.7,118.5,45.6,118.3,45.5z M118.6,46.4v-0.2h-0.3v0.2H118.6z
				 M119.2,2.4V2.3l-0.4-0.1l-0.1,0.2L119.2,2.4z M119.1,4.9V4.7h-0.3v0.2H119.1z M119.7,1.5c-0.2,0.3-0.1,0.6,0.1,0.9
				c-0.1-0.2,0.3-0.5,0.3-0.5L119.7,1.5z M120.3,46.4l-0.1-0.4L120,46L120.3,46.4z M121,46.2V46h-0.6v0.2H121z M120.9,2.8l-0.3-0.3
				l-0.1,0.1L120.9,2.8z M120.9,12c-0.1,0.1-0.1,0.1-0.1,0.2c-0.2,0-0.5-0.2-0.3-0.2c0.1-0.1,0.2-0.1,0.4-0.1
				C120.9,12,120.9,12,120.9,12z M120.9,13v-0.2h-0.4V13H120.9z M120.9,14c-0.2,0.2-0.2,0.6-0.3,0.6c0.4-0.1,0.6-0.3,0.9-0.5
				C121.2,14.1,121,14,120.9,14z M121.1,45C121.1,45,121.1,45,121.1,45c-0.1-0.1-0.1-0.1-0.1-0.2c-0.1-0.1-0.1-0.1-0.1-0.1
				c0,0.2-0.1,0.3-0.3,0.3H121.1z M121.5,43.7h-0.6c0,0.1,0.1,0.4,0.3,0.6c0.1-0.1,0.2-0.1,0.3-0.1V43.7z M121.6,0.5
				c-0.2,0-0.3-0.2-0.6-0.3c0.4-0.2,0.6,0,0.9-0.2C121.9,0.2,121.9,0.5,121.6,0.5z M121.5,1.6L121.5,1.6l-0.4-0.1L121,1.8
				c0.2,0.3,0.3,0.4,0.5,0.4c-0.1-0.1-0.1-0.2,0.1-0.4C121.6,1.7,121.5,1.7,121.5,1.6z M122.2,43.7v-0.2h-0.3v0.2H122.2z
				 M122.4,44.4v-0.2l-0.5-0.1v0.2L122.4,44.4z M122.5,14.3v-0.2h-0.4v0.2H122.5z M122.5,11.3l-0.2-0.1l-0.1,0.3l0.2,0.1L122.5,11.3
				z M123.1,39.9c0,0.2-0.2,0.2-0.2,0.4c0.2,0,0.5,0.1,0.5,0.1C123.1,40.3,123.3,40.1,123.1,39.9z M123.6,44.7l-0.4-0.1v0.2l0.3,0.1
				L123.6,44.7z M123.9,44v-0.7c-0.1-0.1-0.2-0.1-0.4-0.1c0,0.2-0.2,0.4-0.2,0.8H123.9z M124.3,11.9l-0.3-0.3l-0.1,0.1L124.3,11.9z
				 M124.3,46.2c0,0.2-0.2,0.3-0.2,0.5c0-0.2,0.1-0.4-0.1-0.5H124.3z M125.1,6l-0.3-0.1L124.8,6l0.3,0.2L125.1,6z M124.8,43.9
				c0.3,0.2,0.2-0.4,0.2-0.4C125,43.7,124.9,43.8,124.8,43.9z M125.7,20.2l-0.6-0.1v-0.2l0.6,0.1V20.2z M127.2,1.7
				c-0.1,0.1-0.1,0.1-0.2,0.1c-0.2,0-1-0.4-1.3-0.4c-0.3,0-0.3,0.1-0.5,0.1c0-0.2-0.1-0.2-0.1-0.4c0.6,0.2,1.3,0.4,2.2,0.6
				C127.3,1.6,127.3,1.6,127.2,1.7z M125.9,22.3c-0.2-0.2-0.3-0.2-0.3-0.4c0.2,0,0.6-0.1,0.6-0.1C126.1,22.1,125.9,22.1,125.9,22.3z
				 M126.7,42.6c0,0.2,0.1,0.4,0.2,0.6l0.2-0.1c0.1-0.1,0.1-0.1,0.1-0.1C127,43,126.8,42.8,126.7,42.6z M128.5,28.3l-0.1-0.2
				l-0.2,0.2v0.1L128.5,28.3z M129,35.7v-0.1c-0.1-0.1-0.3-0.1-0.5,0.1H129z M129,36.8l-0.1-0.3l-0.2,0.1L129,36.8z M129,39.8
				c0.2-0.2,0.4-0.6,0.6-0.9c0,0.2,0.1,0.3,0.1,0.8C129.5,39.8,129.2,39.8,129,39.8z"/>
		</g>
	</g>
</g>
</svg>
