<?xml version="1.0" encoding="utf-8"?>
<!-- Generator: Adobe Illustrator 18.0.0, SVG Export Plug-In . SVG Version: 6.00 Build 0)  -->
<!DOCTYPE svg PUBLIC "-//W3C//DTD SVG 1.1//EN" "http://www.w3.org/Graphics/SVG/1.1/DTD/svg11.dtd">
<svg version="1.1" id="Warstwa_1" xmlns="http://www.w3.org/2000/svg" xmlns:xlink="http://www.w3.org/1999/xlink" x="0px" y="0px"
	 viewBox="0 0 44 36" enable-background="new 0 0 44 36" xml:space="preserve">
<g>
	<path d="M41.8,0H2.2C1,0,0,1,0,2.2v31.6C0,35,1,36,2.2,36h39.5c1.2,0,2.2-1,2.2-2.2V2.2C44,1,43,0,41.8,0z M18.2,1.4h7.7v7.9
		l-0.5-0.2c-0.2-0.1-0.4-0.1-0.6,0l-1.2,0.6l-1.2-0.6c-0.2-0.1-0.4-0.1-0.6,0l-1.2,0.6l-1.2-0.6C19.2,9,19.1,9,19,9
		c-0.1,0-0.2,0-0.3,0.1l-0.5,0.2V1.4z M42.6,33.8L42.6,33.8c0,0.4-0.4,0.8-0.8,0.8H2.2c-0.4,0-0.8-0.4-0.8-0.8V2.2
		c0-0.4,0.4-0.8,0.8-0.8h14.5v9.1c0,0.2,0.1,0.5,0.3,0.6c0.2,0.1,0.5,0.1,0.7,0l1.2-0.6l1.2,0.6c0.2,0.1,0.4,0.1,0.6,0l1.2-0.6
		l1.2,0.6c0.2,0.1,0.4,0.1,0.6,0l1.2-0.6l1.2,0.6c0.1,0,0.2,0.1,0.3,0.1c0.1,0,0.3,0,0.4-0.1c0.2-0.1,0.3-0.4,0.3-0.6V1.4h14.5
		c0.4,0,0.8,0.4,0.8,0.8V33.8z M27.3,18h-14l3-1.7c0.3-0.2,0.5-0.6,0.3-1c-0.2-0.3-0.6-0.5-1-0.3l-4.2,2.4c-0.4,0.2-0.7,0.6-0.7,1.1
		c0,0.1,0,0.1,0,0.2c0,0.1,0,0.1,0,0.2c0.1,0.5,0.3,0.9,0.7,1.1l4.2,2.4c0.1,0.1,0.2,0.1,0.4,0.1c0.2,0,0.5-0.1,0.6-0.4
		c0.2-0.3,0.1-0.8-0.3-1l-3-1.7h14c2.5,0,4.6,2,4.6,4.6c0,2.5-2.1,4.6-4.6,4.6h-9.1c-0.4,0-0.7,0.3-0.7,0.7c0,0.4,0.3,0.7,0.7,0.7
		h9.1c3.3,0,6-2.7,6-6C33.4,20.7,30.6,18,27.3,18z"/>
</g>
</svg>
