<?xml version="1.0" encoding="utf-8"?>
<!-- Generator: Adobe Illustrator 18.0.0, SVG Export Plug-In . SVG Version: 6.00 Build 0)  -->
<!DOCTYPE svg PUBLIC "-//W3C//DTD SVG 1.1//EN" "http://www.w3.org/Graphics/SVG/1.1/DTD/svg11.dtd">
<svg version="1.1" id="Warstwa_1" xmlns="http://www.w3.org/2000/svg" xmlns:xlink="http://www.w3.org/1999/xlink" x="0px" y="0px"
	 viewBox="0 0 41 41" enable-background="new 0 0 41 41" xml:space="preserve">
<path d="M41,40.2C41,40.1,41,40.1,41,40.2V9.5c0-0.5-0.3-0.9-0.9-0.9h-7C33,3.9,29,0,24.2,0c-1.5,0-2.9,0.3-4.1,1
	c-1.2-0.7-2.7-1-4.1-1c-4.8,0-8.7,3.9-8.9,8.6H0.9C0.3,8.6,0,9,0,9.5v30.6C0,40.7,0.3,41,0.9,41h30.2l0,0l0,0h9.2
	c0.1,0,0.2,0,0.3-0.1h0.1c0.1,0,0.2-0.1,0.2-0.1s0,0,0.1,0c0.1-0.1,0.1-0.2,0.2-0.2l0,0v-0.1C41,40.3,41,40.2,41,40.2z M39.3,37.6
	l-2.9-3.8V10.3h2.9V37.6z M31.8,10.3h2.8v23.5l-2.8,3.8V10.3z M24.2,1.6c3.9,0,7,3.1,7.2,6.9h-0.3l0,0h-6.2
	c-0.1-2.6-1.3-4.9-3.1-6.5C22.5,1.8,23.3,1.6,24.2,1.6z M20,2.9c1.8,1.3,3,3.3,3.1,5.6H17C17,6.2,18.2,4.2,20,2.9z M15.9,1.6
	c0.9,0,1.7,0.2,2.5,0.4c-1.8,1.6-3,3.9-3.1,6.5H8.7C8.8,4.7,12,1.6,15.9,1.6z M1.6,10.3h5.3v4c0,0.5,0.3,0.9,0.9,0.9
	c0.5,0,0.9-0.3,0.9-0.9v-4H23v4c0,0.5,0.3,0.9,0.9,0.9c0.5,0,0.9-0.3,0.9-0.9v-4H30v29H1.6V10.3z M32.7,39.3l2.8-3.8l2.8,3.8H32.7z"
	/>
</svg>
