<?xml version="1.0" encoding="utf-8"?>
<!-- Generator: Adobe Illustrator 18.0.0, SVG Export Plug-In . SVG Version: 6.00 Build 0)  -->
<!DOCTYPE svg PUBLIC "-//W3C//DTD SVG 1.1//EN" "http://www.w3.org/Graphics/SVG/1.1/DTD/svg11.dtd">
<svg version="1.1" id="Warstwa_1" xmlns="http://www.w3.org/2000/svg" xmlns:xlink="http://www.w3.org/1999/xlink" x="0px" y="0px"
	 viewBox="0 0 19.5 26" enable-background="new 0 0 19.5 26" xml:space="preserve">
<g>
	<defs>
		<rect id="SVGID_1_" y="0" width="19.5" height="26"/>
	</defs>
	<clipPath id="SVGID_2_">
		<use xlink:href="#SVGID_1_"  overflow="visible"/>
	</clipPath>
	<path clip-path="url(#SVGID_2_)" fill-rule="evenodd" clip-rule="evenodd" d="M11,16.5c0.4,0,0.8,0.5,0.8,1.2
		c0,0.7-0.3,1.2-0.8,1.2c-0.4,0-0.8-0.5-0.8-1.2C10.2,17.1,10.6,16.5,11,16.5 M14.4,24.6l0.6,1.3h1.7l0-3.3c1.2-1.5,1.9-3.4,1.9-5.5
		c0-1.3-0.3-2.5-0.7-3.5c1.4-1.6,2.1-4.4,0.8-6.9C17,6.9,15.1,8,14,9.3c-0.5-0.3-1-0.5-1.5-0.6l-0.2,0.7c-1.9-0.3-2.8-0.3-4.8,0
		L7.2,8.6C6.6,8.8,6,9,5.4,9.3C4.3,8,2.5,6.9,0.7,6.7c-1.3,2.4-0.6,5.2,0.8,6.8c-0.5,1.1-0.8,2.3-0.8,3.6c0,2,0.7,3.9,1.8,5.3l0,3.5
		h1.7l0.6-1.4C6.2,25.5,7.9,26,9.7,26C11.4,26,13.1,25.5,14.4,24.6 M9.8,0c1.2,0,2.3,0.5,3,1.3c0.8,0.8,1.3,1.9,1.3,3
		c0,1.2-0.5,2.3-1.3,3c-0.8,0.8-1.9,1.3-3,1.3s-2.3-0.5-3-1.3C6,6.6,5.5,5.5,5.5,4.3c0-1.2,0.5-2.3,1.3-3C7.6,0.5,8.7,0,9.8,0
		 M11.6,2.6C12,3,12.3,3.6,12.3,4.3c0,0.7-0.3,1.3-0.7,1.8c-0.4,0.4-1.1,0.7-1.8,0.7c-0.7,0-1.3-0.3-1.8-0.7C7.6,5.6,7.4,5,7.4,4.3
		c0-0.7,0.3-1.3,0.7-1.8c0.4-0.4,1.1-0.7,1.8-0.7C10.5,1.8,11.1,2.1,11.6,2.6 M9.7,14.3c-2,0-3.5,1.6-3.5,3.5s1.6,3.5,3.5,3.5
		s3.5-1.6,3.5-3.5S11.6,14.3,9.7,14.3 M4.6,14.3c0-0.3,0-0.6,0.1-0.9c0.2-0.4,0.4-0.7,0.8-0.9c0.3-0.2,0.7-0.3,1.2-0.4
		c0.4,0,0.9,0,1.3,0.2l-0.4,1c-0.3-0.1-0.6-0.2-0.8-0.2c-0.2,0-0.5,0.1-0.6,0.2c-0.2,0.1-0.3,0.2-0.3,0.4c-0.1,0.1-0.1,0.3-0.1,0.4
		L4.6,14.3z M14.9,14.3l-1.1-0.1c0-0.2,0-0.3-0.1-0.4c-0.1-0.2-0.2-0.3-0.3-0.4c-0.2-0.1-0.4-0.2-0.6-0.2c-0.3,0-0.6,0-0.8,0.2
		l-0.4-1c0.4-0.2,0.9-0.3,1.3-0.2c0.4,0,0.8,0.1,1.2,0.4c0.3,0.2,0.6,0.5,0.8,0.9C14.9,13.6,15,13.9,14.9,14.3 M8.3,16.5
		c0.4,0,0.8,0.5,0.8,1.2C9,18.4,8.7,19,8.3,19c-0.4,0-0.8-0.5-0.8-1.2C7.5,17.1,7.9,16.5,8.3,16.5"/>
</g>
</svg>
